<?xml version="1.0" encoding="UTF-8"?>
<svg width="215px" height="28px" viewBox="0 0 215 28" version="1.1" xmlns="http://www.w3.org/2000/svg" xmlns:xlink="http://www.w3.org/1999/xlink">
    <title>MarioChávez</title>
    <g id="Page-1" stroke="none" stroke-width="1" fill="none" fill-rule="evenodd">
        <g id="MarioChávez" transform="translate(0.265625, 0.720703)" fill="#FFFFFF" fill-rule="nonzero">
            <path d="M0,26.2089844 C0.12890625,26.0214844 0.275390625,25.7431641 0.439453125,25.3740234 C0.603515625,25.0048828 0.732421875,24.5390625 0.826171875,23.9765625 C0.955078125,23.15625 1.09863281,22.2333984 1.25683594,21.2080078 C1.41503906,20.1826172 1.57910156,19.1074219 1.74902344,17.9824219 C1.91894531,16.8574219 2.08886719,15.7060547 2.25878906,14.5283203 C2.42871094,13.3505859 2.59277344,12.1904297 2.75097656,11.0478516 C2.90917969,9.90527344 3.06152344,8.80371094 3.20800781,7.74316406 C3.35449219,6.68261719 3.48632812,5.71289062 3.60351562,4.83398438 C3.72070312,3.95507812 3.81738281,3.19042969 3.89355469,2.54003906 C3.96972656,1.88964844 4.02539062,1.40039062 4.06054688,1.07226562 L6.29296875,1.07226562 L17.3496094,21.7441406 L28.3183594,1.07226562 L29.9882812,1.07226562 L32.8710938,21.9550781 C32.953125,22.6113281 33.0410156,23.1738281 33.1347656,23.6425781 C33.2285156,24.1113281 33.3222656,24.5126953 33.4160156,24.8466797 C33.5097656,25.1806641 33.6005859,25.4560547 33.6884766,25.6728516 C33.7763672,25.8896484 33.8613281,26.0683594 33.9433594,26.2089844 L33.9433594,26.2792969 L29.5136719,26.2792969 L29.5136719,26.2089844 C29.5722656,26.0800781 29.6279297,25.8691406 29.6806641,25.5761719 C29.7333984,25.2832031 29.7597656,24.9316406 29.7597656,24.5214844 C29.7597656,24.3691406 29.7539062,24.2138672 29.7421875,24.0556641 C29.7304688,23.8974609 29.7128906,23.7246094 29.6894531,23.5371094 L27.4570312,6.69726562 L17.0859375,26.2089844 L15.8730469,26.0683594 L5.43164062,6.52148438 C5.02148438,9.29882812 4.6640625,11.8652344 4.359375,14.2207031 C4.23046875,15.2285156 4.1015625,16.2333984 3.97265625,17.2353516 C3.84375,18.2373047 3.72949219,19.171875 3.62988281,20.0390625 C3.53027344,20.90625 3.45117188,21.6708984 3.39257812,22.3330078 C3.33398438,22.9951172 3.3046875,23.484375 3.3046875,23.8007812 C3.3046875,24.1992188 3.31640625,24.5507812 3.33984375,24.8554688 C3.36328125,25.1601562 3.38671875,25.4179688 3.41015625,25.6289062 C3.4453125,25.875 3.48046875,26.0917969 3.515625,26.2792969 L0,26.2792969 L0,26.2089844 Z" id="Path"></path>
            <path d="M36.6855469,21.09375 C36.6855469,20.1679688 36.8759766,19.3652344 37.2568359,18.6855469 C37.6376953,18.0058594 38.1445312,17.4257812 38.7773438,16.9453125 C39.4101562,16.4648438 40.1308594,16.0751953 40.9394531,15.7763672 C41.7480469,15.4775391 42.5859375,15.2431641 43.453125,15.0732422 C44.3203125,14.9033203 45.1757812,14.7861328 46.0195312,14.7216797 C46.8632812,14.6572266 47.6367188,14.6191406 48.3398438,14.6074219 L48.3398438,13.7109375 C48.3398438,12.9375 48.2402344,12.2695312 48.0410156,11.7070312 C47.8417969,11.1445312 47.5605469,10.6787109 47.1972656,10.3095703 C46.8339844,9.94042969 46.3974609,9.66503906 45.8876953,9.48339844 C45.3779297,9.30175781 44.8183594,9.2109375 44.2089844,9.2109375 C43.7871094,9.2109375 43.3710938,9.24609375 42.9609375,9.31640625 C42.5507812,9.38671875 42.1259766,9.50390625 41.6865234,9.66796875 C41.2470703,9.83203125 40.7841797,10.0546875 40.2978516,10.3359375 C39.8115234,10.6171875 39.2871094,10.9746094 38.7246094,11.4082031 L38.5488281,11.3027344 L39.7441406,8.82421875 C40.1308594,8.6484375 40.5117188,8.50488281 40.8867188,8.39355469 C41.2617188,8.28222656 41.6425781,8.19140625 42.0292969,8.12109375 C42.4160156,8.05078125 42.8115234,8.00097656 43.2158203,7.97167969 C43.6201172,7.94238281 44.0449219,7.92773438 44.4902344,7.92773438 C45.7207031,7.92773438 46.7724609,8.07714844 47.6455078,8.37597656 C48.5185547,8.67480469 49.2333984,9.08496094 49.7900391,9.60644531 C50.3466797,10.1279297 50.7539062,10.7373047 51.0117188,11.4345703 C51.2695312,12.1318359 51.3984375,12.8789062 51.3984375,13.6757812 L51.3984375,19.40625 C51.3984375,20.4023438 51.4130859,21.2724609 51.4423828,22.0166016 C51.4716797,22.7607422 51.5068359,23.4023438 51.5478516,23.9414062 C51.5888672,24.4804688 51.6416016,24.9316406 51.7060547,25.2949219 C51.7705078,25.6582031 51.8378906,25.9628906 51.9082031,26.2089844 L51.9082031,26.2792969 L48.0234375,26.2792969 L48.0234375,26.2089844 C48.0820312,26.0214844 48.1259766,25.8105469 48.1552734,25.5761719 C48.1845703,25.3417969 48.2109375,25.0605469 48.234375,24.7324219 C47.9882812,24.9433594 47.6982422,25.1601562 47.3642578,25.3828125 C47.0302734,25.6054688 46.6494141,25.8076172 46.2216797,25.9892578 C45.7939453,26.1708984 45.3193359,26.3173828 44.7978516,26.4287109 C44.2763672,26.5400391 43.7050781,26.5957031 43.0839844,26.5957031 C41.0449219,26.5957031 39.46875,26.1181641 38.3554688,25.1630859 C37.2421875,24.2080078 36.6855469,22.8515625 36.6855469,21.09375 Z M48.3398438,15.9785156 C47.2734375,15.9902344 46.2480469,16.0517578 45.2636719,16.1630859 C44.2792969,16.2744141 43.4091797,16.5058594 42.6533203,16.8574219 C41.8974609,17.2089844 41.2939453,17.7099609 40.8427734,18.3603516 C40.3916016,19.0107422 40.1660156,19.875 40.1660156,20.953125 C40.1660156,22.3359375 40.5117188,23.390625 41.203125,24.1171875 C41.8945312,24.84375 42.8496094,25.2070312 44.0683594,25.2070312 C44.6308594,25.2070312 45.1435547,25.1279297 45.6064453,24.9697266 C46.0693359,24.8115234 46.4794922,24.6123047 46.8369141,24.3720703 C47.1943359,24.1318359 47.4960938,23.8681641 47.7421875,23.5810547 C47.9882812,23.2939453 48.1757812,23.015625 48.3046875,22.7460938 C48.328125,22.3007812 48.3398438,21.8056641 48.3398438,21.2607422 C48.3398438,20.7158203 48.3398438,20.0976562 48.3398438,19.40625 L48.3398438,15.9785156 Z" id="Shape"></path>
            <path d="M56.7070312,15.1523438 C56.7070312,14.15625 56.6923828,13.2861328 56.6630859,12.5419922 C56.6337891,11.7978516 56.5986328,11.15625 56.5576172,10.6171875 C56.5166016,10.078125 56.4638672,9.62695312 56.3994141,9.26367188 C56.3349609,8.90039062 56.2675781,8.59570312 56.1972656,8.34960938 L56.1972656,8.27929688 L60.2578125,8.27929688 L60.2578125,8.34960938 C60.1640625,8.61914062 60.0849609,8.94726562 60.0205078,9.33398438 C59.9560547,9.72070312 59.90625,10.21875 59.8710938,10.828125 C60.3046875,10.4648438 60.7558594,10.1074219 61.2246094,9.75585938 C61.6933594,9.40429688 62.1738281,9.09375 62.6660156,8.82421875 C63.1582031,8.5546875 63.6591797,8.33789062 64.1689453,8.17382812 C64.6787109,8.00976562 65.1914062,7.92773438 65.7070312,7.92773438 C66.0234375,7.92773438 66.2988281,7.94238281 66.5332031,7.97167969 C66.7675781,8.00097656 66.9785156,8.04199219 67.1660156,8.09472656 C67.3535156,8.14746094 67.5234375,8.20605469 67.6757812,8.27050781 C67.828125,8.33496094 67.9746094,8.39648438 68.1152344,8.45507812 L67.2539062,11.8125 L66.9550781,11.7421875 C66.8144531,11.2265625 66.5507812,10.8134766 66.1640625,10.5029297 C65.7773438,10.1923828 65.25,10.0371094 64.5820312,10.0371094 C64.21875,10.0371094 63.8378906,10.1015625 63.4394531,10.2304688 C63.0410156,10.359375 62.6367188,10.5380859 62.2265625,10.7666016 C61.8164062,10.9951172 61.40625,11.2587891 60.9960938,11.5576172 C60.5859375,11.8564453 60.1875,12.1699219 59.8007812,12.4980469 C59.7773438,12.8378906 59.765625,13.2070312 59.765625,13.6054688 C59.765625,14.0039062 59.765625,14.4257812 59.765625,14.8710938 L59.765625,19.40625 C59.765625,20.4023438 59.7773438,21.2724609 59.8007812,22.0166016 C59.8242188,22.7607422 59.859375,23.4023438 59.90625,23.9414062 C59.953125,24.4804688 60.0058594,24.9316406 60.0644531,25.2949219 C60.1230469,25.6582031 60.1875,25.9628906 60.2578125,26.2089844 L60.2578125,26.2792969 L56.1972656,26.2792969 L56.1972656,26.2089844 C56.2675781,25.9628906 56.3349609,25.6582031 56.3994141,25.2949219 C56.4638672,24.9316406 56.5166016,24.4804688 56.5576172,23.9414062 C56.5986328,23.4023438 56.6337891,22.7607422 56.6630859,22.0166016 C56.6923828,21.2724609 56.7070312,20.4023438 56.7070312,19.40625 L56.7070312,15.1523438 Z" id="Path"></path>
            <path d="M70.9277344,15.1523438 C70.9277344,14.15625 70.9130859,13.2861328 70.8837891,12.5419922 C70.8544922,11.7978516 70.8193359,11.15625 70.7783203,10.6171875 C70.7373047,10.078125 70.6845703,9.62695312 70.6201172,9.26367188 C70.5556641,8.90039062 70.4882812,8.59570312 70.4179688,8.34960938 L70.4179688,8.27929688 L74.4785156,8.27929688 L74.4785156,8.34960938 C74.4082031,8.59570312 74.34375,8.90039062 74.2851562,9.26367188 C74.2265625,9.62695312 74.1738281,10.078125 74.1269531,10.6171875 C74.0800781,11.15625 74.0449219,11.7978516 74.0214844,12.5419922 C73.9980469,13.2861328 73.9863281,14.15625 73.9863281,15.1523438 L73.9863281,19.40625 C73.9863281,20.4023438 73.9980469,21.2724609 74.0214844,22.0166016 C74.0449219,22.7607422 74.0800781,23.4023438 74.1269531,23.9414062 C74.1738281,24.4804688 74.2265625,24.9316406 74.2851562,25.2949219 C74.34375,25.6582031 74.4082031,25.9628906 74.4785156,26.2089844 L74.4785156,26.2792969 L70.4179688,26.2792969 L70.4179688,26.2089844 C70.4882812,25.9628906 70.5556641,25.6582031 70.6201172,25.2949219 C70.6845703,24.9316406 70.7373047,24.4804688 70.7783203,23.9414062 C70.8193359,23.4023438 70.8544922,22.7607422 70.8837891,22.0166016 C70.9130859,21.2724609 70.9277344,20.4023438 70.9277344,19.40625 L70.9277344,15.1523438 Z M70.5585938,2.953125 C70.5585938,2.6953125 70.6083984,2.45214844 70.7080078,2.22363281 C70.8076172,1.99511719 70.9394531,1.79589844 71.1035156,1.62597656 C71.2675781,1.45605469 71.4638672,1.32128906 71.6923828,1.22167969 C71.9208984,1.12207031 72.1699219,1.07226562 72.4394531,1.07226562 C72.7089844,1.07226562 72.9580078,1.12207031 73.1865234,1.22167969 C73.4150391,1.32128906 73.6142578,1.45605469 73.7841797,1.62597656 C73.9541016,1.79589844 74.0888672,1.99511719 74.1884766,2.22363281 C74.2880859,2.45214844 74.3378906,2.6953125 74.3378906,2.953125 C74.3378906,3.4921875 74.15625,3.94335938 73.7929688,4.30664062 C73.4296875,4.66992188 72.9785156,4.8515625 72.4394531,4.8515625 C72.1699219,4.8515625 71.9208984,4.80175781 71.6923828,4.70214844 C71.4638672,4.60253906 71.2675781,4.46777344 71.1035156,4.29785156 C70.9394531,4.12792969 70.8076172,3.92871094 70.7080078,3.70019531 C70.6083984,3.47167969 70.5585938,3.22265625 70.5585938,2.953125 Z" id="Shape"></path>
            <path d="M78.0292969,17.2441406 C78.0292969,15.9199219 78.2753906,14.6923828 78.7675781,13.5615234 C79.2597656,12.4306641 79.9365234,11.4492188 80.7978516,10.6171875 C81.6591797,9.78515625 82.6757812,9.13476562 83.8476562,8.66601562 C85.0195312,8.19726562 86.2792969,7.96289062 87.6269531,7.96289062 C88.9511719,7.96289062 90.1962891,8.18261719 91.3623047,8.62207031 C92.5283203,9.06152344 93.5449219,9.68554688 94.4121094,10.4941406 C95.2792969,11.3027344 95.9619141,12.2871094 96.4599609,13.4472656 C96.9580078,14.6074219 97.2070312,15.9082031 97.2070312,17.3496094 C97.2070312,18.5566406 96.9960938,19.7167969 96.5742188,20.8300781 C96.1523438,21.9433594 95.53125,22.9277344 94.7109375,23.7832031 C93.890625,24.6386719 92.8857422,25.3212891 91.6962891,25.8310547 C90.5068359,26.3408203 89.1386719,26.5957031 87.5917969,26.5957031 C86.2792969,26.5957031 85.0429688,26.3789062 83.8828125,25.9453125 C82.7226562,25.5117188 81.7089844,24.890625 80.8417969,24.0820312 C79.9746094,23.2734375 79.2890625,22.2919922 78.7851562,21.1376953 C78.28125,19.9833984 78.0292969,18.6855469 78.0292969,17.2441406 Z M87.9960938,25.3125 C88.828125,25.3125 89.5927734,25.1484375 90.2900391,24.8203125 C90.9873047,24.4921875 91.5878906,24.0175781 92.0917969,23.3964844 C92.5957031,22.7753906 92.9882812,22.0195312 93.2695312,21.1289062 C93.5507812,20.2382812 93.6914062,19.2304688 93.6914062,18.1054688 C93.6914062,16.8398438 93.5566406,15.6650391 93.2871094,14.5810547 C93.0175781,13.4970703 92.6162109,12.5595703 92.0830078,11.7685547 C91.5498047,10.9775391 90.8789062,10.359375 90.0703125,9.9140625 C89.2617188,9.46875 88.3183594,9.24609375 87.2402344,9.24609375 C86.4082031,9.24609375 85.6464844,9.40722656 84.9550781,9.72949219 C84.2636719,10.0517578 83.6630859,10.5175781 83.1533203,11.1269531 C82.6435547,11.7363281 82.2480469,12.4833984 81.9667969,13.3681641 C81.6855469,14.2529297 81.5449219,15.2578125 81.5449219,16.3828125 C81.5449219,17.6484375 81.6826172,18.8261719 81.9580078,19.9160156 C82.2333984,21.0058594 82.640625,21.9521484 83.1796875,22.7548828 C83.71875,23.5576172 84.3896484,24.1845703 85.1923828,24.6357422 C85.9951172,25.0869141 86.9296875,25.3125 87.9960938,25.3125 Z" id="Shape"></path>
            <path d="M121.341797,4.93945312 L121.183594,5.00976562 C120.269531,4.16601562 119.170898,3.4921875 117.887695,2.98828125 C116.604492,2.484375 115.195312,2.23242188 113.660156,2.23242188 C112.183594,2.23242188 110.830078,2.46386719 109.599609,2.92675781 C108.369141,3.38964844 107.311523,4.06054688 106.426758,4.93945312 C105.541992,5.81835938 104.853516,6.89648438 104.361328,8.17382812 C103.869141,9.45117188 103.623047,10.9042969 103.623047,12.5332031 C103.623047,14.3261719 103.857422,15.9990234 104.326172,17.5517578 C104.794922,19.1044922 105.492188,20.4492188 106.417969,21.5859375 C107.34375,22.7226562 108.500977,23.6162109 109.889648,24.2666016 C111.27832,24.9169922 112.898438,25.2421875 114.75,25.2421875 C115.417969,25.2421875 116.085938,25.171875 116.753906,25.03125 C117.421875,24.890625 118.063477,24.6826172 118.678711,24.4072266 C119.293945,24.1318359 119.874023,23.7978516 120.418945,23.4052734 C120.963867,23.0126953 121.458984,22.5644531 121.904297,22.0605469 L122.097656,22.1835938 L120.691406,25.7695312 C119.8125,26.109375 118.842773,26.3701172 117.782227,26.5517578 C116.72168,26.7333984 115.652344,26.8242188 114.574219,26.8242188 C112.40625,26.8242188 110.422852,26.5107422 108.624023,25.8837891 C106.825195,25.2568359 105.27832,24.3691406 103.983398,23.2207031 C102.688477,22.0722656 101.680664,20.6923828 100.959961,19.0810547 C100.239258,17.4697266 99.8789062,15.6796875 99.8789062,13.7109375 C99.8789062,12.5976562 100.022461,11.5019531 100.30957,10.4238281 C100.59668,9.34570312 101.015625,8.3203125 101.566406,7.34765625 C102.117188,6.375 102.796875,5.48144531 103.605469,4.66699219 C104.414062,3.85253906 105.336914,3.14648438 106.374023,2.54882812 C107.411133,1.95117188 108.553711,1.48535156 109.801758,1.15136719 C111.049805,0.817382812 112.400391,0.650390625 113.853516,0.650390625 C116.115234,0.650390625 118.212891,0.99609375 120.146484,1.6875 L121.341797,4.93945312 Z" id="Path"></path>
            <path d="M137.601562,14.4316406 C137.601562,12.8847656 137.291016,11.7480469 136.669922,11.0214844 C136.048828,10.2949219 135.216797,9.93164062 134.173828,9.93164062 C133.787109,9.93164062 133.356445,10.0107422 132.881836,10.1689453 C132.407227,10.3271484 131.920898,10.5410156 131.422852,10.8105469 C130.924805,11.0800781 130.429688,11.3935547 129.9375,11.7509766 C129.445312,12.1083984 128.988281,12.4863281 128.566406,12.8847656 L128.566406,19.40625 C128.566406,20.4023438 128.578125,21.2724609 128.601562,22.0166016 C128.625,22.7607422 128.660156,23.4023438 128.707031,23.9414062 C128.753906,24.4804688 128.806641,24.9316406 128.865234,25.2949219 C128.923828,25.6582031 128.988281,25.9628906 129.058594,26.2089844 L129.058594,26.2792969 L124.998047,26.2792969 L124.998047,26.2089844 C125.068359,25.9628906 125.135742,25.6582031 125.200195,25.2949219 C125.264648,24.9316406 125.317383,24.4804688 125.358398,23.9414062 C125.399414,23.4023438 125.43457,22.7607422 125.463867,22.0166016 C125.493164,21.2724609 125.507812,20.4023438 125.507812,19.40625 L125.507812,6.87304688 C125.507812,5.87695312 125.493164,5.00683594 125.463867,4.26269531 C125.43457,3.51855469 125.399414,2.87695312 125.358398,2.33789062 C125.317383,1.79882812 125.264648,1.34765625 125.200195,0.984375 C125.135742,0.62109375 125.068359,0.31640625 124.998047,0.0703125 L124.998047,0 L129.058594,0 L129.058594,0.0703125 C128.988281,0.31640625 128.923828,0.62109375 128.865234,0.984375 C128.806641,1.34765625 128.753906,1.79882812 128.707031,2.33789062 C128.660156,2.87695312 128.625,3.51855469 128.601562,4.26269531 C128.578125,5.00683594 128.566406,5.87695312 128.566406,6.87304688 L128.566406,11.3730469 C129.035156,10.9511719 129.553711,10.5351562 130.12207,10.125 C130.69043,9.71484375 131.279297,9.34570312 131.888672,9.01757812 C132.498047,8.68945312 133.119141,8.42578125 133.751953,8.2265625 C134.384766,8.02734375 135.005859,7.92773438 135.615234,7.92773438 C136.529297,7.92773438 137.305664,8.0859375 137.944336,8.40234375 C138.583008,8.71875 139.104492,9.13476562 139.508789,9.65039062 C139.913086,10.1660156 140.206055,10.7548828 140.387695,11.4169922 C140.569336,12.0791016 140.660156,12.75 140.660156,13.4296875 L140.660156,19.40625 C140.660156,20.4023438 140.671875,21.2724609 140.695312,22.0166016 C140.71875,22.7607422 140.753906,23.4023438 140.800781,23.9414062 C140.847656,24.4804688 140.900391,24.9316406 140.958984,25.2949219 C141.017578,25.6582031 141.082031,25.9628906 141.152344,26.2089844 L141.152344,26.2792969 L137.091797,26.2792969 L137.091797,26.2089844 C137.162109,25.9628906 137.229492,25.6582031 137.293945,25.2949219 C137.358398,24.9316406 137.411133,24.4804688 137.452148,23.9414062 C137.493164,23.4023438 137.52832,22.7607422 137.557617,22.0166016 C137.586914,21.2724609 137.601562,20.4023438 137.601562,19.40625 L137.601562,14.4316406 Z" id="Path"></path>
            <path d="M144.544922,21.09375 C144.544922,20.1679688 144.735352,19.3652344 145.116211,18.6855469 C145.49707,18.0058594 146.003906,17.4257812 146.636719,16.9453125 C147.269531,16.4648438 147.990234,16.0751953 148.798828,15.7763672 C149.607422,15.4775391 150.445312,15.2431641 151.3125,15.0732422 C152.179688,14.9033203 153.035156,14.7861328 153.878906,14.7216797 C154.722656,14.6572266 155.496094,14.6191406 156.199219,14.6074219 L156.199219,13.7109375 C156.199219,12.9375 156.099609,12.2695312 155.900391,11.7070312 C155.701172,11.1445312 155.419922,10.6787109 155.056641,10.3095703 C154.693359,9.94042969 154.256836,9.66503906 153.74707,9.48339844 C153.237305,9.30175781 152.677734,9.2109375 152.068359,9.2109375 C151.646484,9.2109375 151.230469,9.24609375 150.820312,9.31640625 C150.410156,9.38671875 149.985352,9.50390625 149.545898,9.66796875 C149.106445,9.83203125 148.643555,10.0546875 148.157227,10.3359375 C147.670898,10.6171875 147.146484,10.9746094 146.583984,11.4082031 L146.408203,11.3027344 L147.603516,8.82421875 C147.990234,8.6484375 148.371094,8.50488281 148.746094,8.39355469 C149.121094,8.28222656 149.501953,8.19140625 149.888672,8.12109375 C150.275391,8.05078125 150.670898,8.00097656 151.075195,7.97167969 C151.479492,7.94238281 151.904297,7.92773438 152.349609,7.92773438 C153.580078,7.92773438 154.631836,8.07714844 155.504883,8.37597656 C156.37793,8.67480469 157.092773,9.08496094 157.649414,9.60644531 C158.206055,10.1279297 158.613281,10.7373047 158.871094,11.4345703 C159.128906,12.1318359 159.257812,12.8789062 159.257812,13.6757812 L159.257812,19.40625 C159.257812,20.4023438 159.272461,21.2724609 159.301758,22.0166016 C159.331055,22.7607422 159.366211,23.4023438 159.407227,23.9414062 C159.448242,24.4804688 159.500977,24.9316406 159.56543,25.2949219 C159.629883,25.6582031 159.697266,25.9628906 159.767578,26.2089844 L159.767578,26.2792969 L155.882812,26.2792969 L155.882812,26.2089844 C155.941406,26.0214844 155.985352,25.8105469 156.014648,25.5761719 C156.043945,25.3417969 156.070312,25.0605469 156.09375,24.7324219 C155.847656,24.9433594 155.557617,25.1601562 155.223633,25.3828125 C154.889648,25.6054688 154.508789,25.8076172 154.081055,25.9892578 C153.65332,26.1708984 153.178711,26.3173828 152.657227,26.4287109 C152.135742,26.5400391 151.564453,26.5957031 150.943359,26.5957031 C148.904297,26.5957031 147.328125,26.1181641 146.214844,25.1630859 C145.101562,24.2080078 144.544922,22.8515625 144.544922,21.09375 Z M156.199219,15.9785156 C155.132812,15.9902344 154.107422,16.0517578 153.123047,16.1630859 C152.138672,16.2744141 151.268555,16.5058594 150.512695,16.8574219 C149.756836,17.2089844 149.15332,17.7099609 148.702148,18.3603516 C148.250977,19.0107422 148.025391,19.875 148.025391,20.953125 C148.025391,22.3359375 148.371094,23.390625 149.0625,24.1171875 C149.753906,24.84375 150.708984,25.2070312 151.927734,25.2070312 C152.490234,25.2070312 153.00293,25.1279297 153.46582,24.9697266 C153.928711,24.8115234 154.338867,24.6123047 154.696289,24.3720703 C155.053711,24.1318359 155.355469,23.8681641 155.601562,23.5810547 C155.847656,23.2939453 156.035156,23.015625 156.164062,22.7460938 C156.1875,22.3007812 156.199219,21.8056641 156.199219,21.2607422 C156.199219,20.7158203 156.199219,20.0976562 156.199219,19.40625 L156.199219,15.9785156 Z M158.396484,3.05859375 C157.529297,3.3515625 156.650391,3.66210938 155.759766,3.99023437 C155.373047,4.13085938 154.96875,4.28320312 154.546875,4.44726562 C154.125,4.61132812 153.697266,4.78710938 153.263672,4.97460938 C152.830078,5.16210938 152.393555,5.35253906 151.954102,5.54589844 C151.514648,5.73925781 151.095703,5.94140625 150.697266,6.15234375 L150.310547,5.50195312 C151.072266,4.99804688 151.831055,4.44726562 152.586914,3.84960938 C153.342773,3.25195312 154.037109,2.68945312 154.669922,2.16210938 C155.396484,1.55273438 156.099609,0.9375 156.779297,0.31640625 L158.396484,3.05859375 Z" id="Shape"></path>
            <path d="M166.21875,8.27929688 L166.21875,8.34960938 C166.195312,8.40820312 166.177734,8.49609375 166.166016,8.61328125 C166.154297,8.73046875 166.148438,8.8359375 166.148438,8.9296875 C166.148438,9.29296875 166.201172,9.69433594 166.306641,10.1337891 C166.412109,10.5732422 166.599609,11.1210938 166.869141,11.7773438 L171.070312,21.7792969 L175.324219,11.9179688 C175.5,11.484375 175.6875,11.0097656 175.886719,10.4941406 C176.085938,9.97851562 176.185547,9.45703125 176.185547,8.9296875 C176.185547,8.77734375 176.173828,8.65136719 176.150391,8.55175781 C176.126953,8.45214844 176.103516,8.38476562 176.080078,8.34960938 L176.080078,8.27929688 L179.244141,8.27929688 L179.244141,8.34960938 C179.033203,8.57226562 178.766602,8.96777344 178.444336,9.53613281 C178.12207,10.1044922 177.779297,10.8164062 177.416016,11.671875 L170.929688,26.5253906 L169.892578,26.5253906 L163.880859,12.5332031 C163.669922,12.0175781 163.444336,11.5224609 163.204102,11.0478516 C162.963867,10.5732422 162.735352,10.1484375 162.518555,9.7734375 C162.301758,9.3984375 162.111328,9.08496094 161.947266,8.83300781 C161.783203,8.58105469 161.671875,8.41992188 161.613281,8.34960938 L161.613281,8.27929688 L166.21875,8.27929688 Z" id="Path"></path>
            <path d="M189.580078,26.5957031 C188.279297,26.5957031 187.060547,26.390625 185.923828,25.9804688 C184.787109,25.5703125 183.796875,24.9697266 182.953125,24.1787109 C182.109375,23.3876953 181.444336,22.4091797 180.958008,21.2431641 C180.47168,20.0771484 180.228516,18.7441406 180.228516,17.2441406 C180.228516,15.9199219 180.451172,14.6923828 180.896484,13.5615234 C181.341797,12.4306641 181.957031,11.4492188 182.742188,10.6171875 C183.527344,9.78515625 184.444336,9.13476562 185.493164,8.66601562 C186.541992,8.19726562 187.675781,7.96289062 188.894531,7.96289062 C190.101562,7.96289062 191.220703,8.17089844 192.251953,8.58691406 C193.283203,9.00292969 194.176758,9.60644531 194.932617,10.3974609 C195.688477,11.1884766 196.286133,12.1669922 196.725586,13.3330078 C197.165039,14.4990234 197.402344,15.8261719 197.4375,17.3144531 C196.113281,17.2910156 194.789062,17.2734375 193.464844,17.2617188 C192.140625,17.25 190.763672,17.2441406 189.333984,17.2441406 C188.314453,17.2441406 187.321289,17.25 186.354492,17.2617188 C185.387695,17.2734375 184.517578,17.2910156 183.744141,17.3144531 C183.814453,18.5332031 184.004883,19.6347656 184.31543,20.6191406 C184.625977,21.6035156 185.053711,22.4443359 185.598633,23.1416016 C186.143555,23.8388672 186.805664,24.375 187.584961,24.75 C188.364258,25.125 189.246094,25.3125 190.230469,25.3125 C190.910156,25.3125 191.551758,25.2333984 192.155273,25.0751953 C192.758789,24.9169922 193.306641,24.6972656 193.798828,24.4160156 C194.291016,24.1347656 194.730469,23.8037109 195.117188,23.4228516 C195.503906,23.0419922 195.832031,22.6289062 196.101562,22.1835938 L196.3125,22.2890625 L195.011719,25.4179688 C194.378906,25.7460938 193.623047,26.0244141 192.744141,26.2529297 C191.865234,26.4814453 190.810547,26.5957031 189.580078,26.5957031 Z M187.242188,15.8730469 C188.414062,15.8730469 189.588867,15.8701172 190.766602,15.8642578 C191.944336,15.8583984 193.013672,15.8378906 193.974609,15.8027344 C193.869141,14.7832031 193.669922,13.8691406 193.376953,13.0605469 C193.083984,12.2519531 192.708984,11.5664062 192.251953,11.0039062 C191.794922,10.4414062 191.255859,10.0078125 190.634766,9.703125 C190.013672,9.3984375 189.328125,9.24609375 188.578125,9.24609375 C187.898438,9.24609375 187.274414,9.39550781 186.706055,9.69433594 C186.137695,9.99316406 185.642578,10.4238281 185.220703,10.9863281 C184.798828,11.5488281 184.458984,12.2373047 184.201172,13.0517578 C183.943359,13.8662109 183.791016,14.7949219 183.744141,15.8378906 C184.271484,15.8613281 184.828125,15.8730469 185.414062,15.8730469 C186,15.8730469 186.609375,15.8730469 187.242188,15.8730469 Z" id="Shape"></path>
            <path d="M203.009766,24.9082031 L208.230469,24.9082031 C209.144531,24.9082031 209.988281,24.8583984 210.761719,24.7587891 C211.535156,24.6591797 212.203125,24.5449219 212.765625,24.4160156 C213.421875,24.2753906 214.019531,24.1054688 214.558594,23.90625 L213.767578,26.4199219 C213.626953,26.4082031 213.383789,26.3935547 213.038086,26.3759766 C212.692383,26.3583984 212.329102,26.3408203 211.948242,26.3232422 C211.567383,26.3056641 211.207031,26.2939453 210.867188,26.2880859 C210.527344,26.2822266 210.298828,26.2792969 210.181641,26.2792969 L198.791016,26.2792969 L198.791016,25.8398438 L210.146484,9.65039062 L206.472656,9.65039062 C205.5,9.65039062 204.606445,9.703125 203.791992,9.80859375 C202.977539,9.9140625 202.271484,10.03125 201.673828,10.1601562 C200.970703,10.3007812 200.337891,10.4648438 199.775391,10.6523438 L200.917969,8.13867188 C201.058594,8.16210938 201.301758,8.1796875 201.647461,8.19140625 C201.993164,8.203125 202.359375,8.21777344 202.746094,8.23535156 C203.132812,8.25292969 203.493164,8.26464844 203.827148,8.27050781 C204.161133,8.27636719 204.392578,8.27929688 204.521484,8.27929688 L214.417969,8.27929688 L214.417969,8.59570312 L203.009766,24.9082031 Z" id="Path"></path>
        </g>
    </g>
</svg>