<?xml version="1.0" encoding="UTF-8"?>
<svg width="193px" height="37px" viewBox="0 0 193 37" version="1.1" xmlns="http://www.w3.org/2000/svg" xmlns:xlink="http://www.w3.org/1999/xlink">
    <title>Maquina@1x</title>
    <defs>
        <linearGradient x1="21.1516204%" y1="21.8476723%" x2="100%" y2="93.4678819%" id="linearGradient-1">
            <stop stop-color="#50B1FD" stop-opacity="0.96" offset="0%"></stop>
            <stop stop-color="#DE77DE" stop-opacity="0.96" offset="100%"></stop>
        </linearGradient>
    </defs>
    <g id="Maquina" stroke="none" stroke-width="1" fill="none" fill-rule="evenodd">
        <rect fill="#FFFFFF" x="0" y="0" width="193" height="37"></rect>
        <g id="Logo-with-text-Copy" transform="translate(-0, 0)">
            <g id="Logo" fill="url(#linearGradient-1)">
                <path d="M18.5,0 C28.7172679,0 37,8.28273213 37,18.5 C37,28.7172679 28.7172679,37 18.5,37 C8.28273213,37 0,28.7172679 0,18.5 C0,8.28273213 8.28273213,0 18.5,0 Z M18.1554854,3.63205817 L17.8944496,3.63581656 C9.36683457,3.84027681 0.836840614,12.0350112 4.50706803,23.8146242 L4.59518217,23.7700839 C4.64360314,23.7447382 4.70897402,23.7098293 4.79129404,23.6653575 L4.97853273,23.5636635 C5.46815262,23.2966266 6.32687615,22.8213343 7.55462557,22.1378084 L8.04918635,21.8623315 C8.73326007,21.4811141 9.51597026,21.0442375 10.3973062,20.5517047 C11.3131916,24.0865094 14.52746,26.6971058 18.3520653,26.6971058 C19.6331779,26.6971058 20.8458094,26.4041911 21.9265164,25.8817429 L26.272454,28.2717446 C18.602118,32.8760206 12.3513172,31.8053884 7.52005149,25.0598478 C6.5192074,25.660625 5.86553189,26.053007 5.53558959,26.2510617 C9.90641364,33.7628876 21.630801,37.1656858 30.0152086,27.7678713 C29.8392594,27.647903 27.867137,26.5108747 24.0976818,24.3564435 C25.6222837,22.8662855 26.5684834,20.7879116 26.5684834,18.4887579 C26.5684834,15.6666177 25.1428628,13.1771221 22.9718276,11.6998088 L22.9575592,6.69097662 C30.7071617,11.1608171 32.8002934,17.1415737 29.2369542,24.6332466 C30.2481412,25.2164822 30.9085719,25.5974075 31.2419239,25.7896794 C35.6993568,18.3288198 32.9943414,6.43480213 20.701905,3.66498754 C20.6820302,3.87846413 20.6422491,6.18526648 20.5826275,10.5864937 C19.8733406,10.3870809 19.1251724,10.28041 18.3520653,10.28041 C13.9990003,10.28041 10.4365896,13.6622791 10.1537474,17.939548 L6.00240084,20.3500946 C6.00240084,11.4104136 10.1404145,6.60911054 18.4164418,5.94618531 L18.4164418,3.63331971 L18.1554854,3.63205817 Z M18.3901043,14.9926097 C20.3438803,14.9926097 21.9277287,16.5749025 21.9277287,18.5267595 C21.9277287,20.4786165 20.3438803,22.0609093 18.3901043,22.0609093 C16.4363282,22.0609093 14.8524798,20.4786165 14.8524798,18.5267595 C14.8524798,16.5749025 16.4363282,14.9926097 18.3901043,14.9926097 Z" id="Combined-Shape"></path>
            </g>
            <g id="Maquina" transform="translate(47, 4)" fill="#50B1FD" fill-rule="nonzero">
                <path d="M0,25.3846154 L0,1.49321267 L3.2082061,1.49321267 L3.2082061,25.3846154 L0,25.3846154 Z M21.4810321,25.3846154 L21.4810321,1.49321267 L24.6892382,1.49321267 L24.6892382,25.3846154 L21.4810321,25.3846154 Z M13.4605169,25.3846154 L11.1938495,25.3846154 L4.84718095,10.0660101 L1.77846207,1.49321267 L4.42871928,1.49321267 L11.7169266,19.0252861 L12.6584654,21.9063082 L12.1702601,21.9063082 L13.1466706,19.0252861 L20.4000061,1.49321267 L22.8759043,1.49321267 L19.8071855,10.1011445 L13.4605169,25.3846154 Z" id="Shape"></path>
                <path d="M30.9251993,12.6659885 L27.8472373,12.6659885 C28.0570984,11.2821706 28.4884794,10.10358 29.1413804,9.13021664 C29.7942815,8.15685325 30.6687025,7.41217162 31.7646435,6.89617175 C32.8605845,6.38017188 34.1663866,6.12217195 35.6820497,6.12217195 C37.3376202,6.12217195 38.7133759,6.42708096 39.8093169,7.03689899 C40.9052579,7.64671702 41.7213842,8.49694407 42.2576958,9.58758016 C42.7940073,10.6782163 43.0621631,11.950625 43.0621631,13.4048065 L43.0621631,20.7578046 C43.0621631,21.8367134 43.1146284,22.7279859 43.2195589,23.4316221 C43.3244894,24.1352583 43.4935442,24.7450763 43.7267231,25.2610762 L40.4738769,25.2610762 C40.2406979,24.7919854 40.1007906,24.2056219 40.0541548,23.5019857 C40.007519,22.7983496 39.9842011,22.1064406 39.9842011,21.426259 L39.9842011,13.4751701 C39.9842011,11.9740796 39.6169443,10.8189435 38.8824306,10.0097619 C38.147917,9.20058026 36.9878517,8.79598945 35.402235,8.79598945 C34.073115,8.79598945 33.0412982,9.14194391 32.3067845,9.83385283 C31.5722709,10.5257617 31.1117425,11.469807 30.9251993,12.6659885 Z M40.4389,13.8973518 L40.4389,16.2193512 C38.3636075,16.2193512 36.6672307,16.319033 35.3497697,16.5183966 C34.0323087,16.7177602 33.0121508,16.9992147 32.2892961,17.36276 C31.5664414,17.7263054 31.0651067,18.1543507 30.7852919,18.6468961 C30.5054772,19.1394414 30.3655699,19.6788958 30.3655699,20.2652593 C30.3655699,21.1330772 30.6978498,21.8073953 31.3624098,22.2882133 C32.0269698,22.7690314 32.8955614,23.0094404 33.9681845,23.0094404 C35.1107613,23.0094404 36.1367486,22.7397132 37.0461465,22.2002588 C37.9555443,21.6608044 38.6725696,20.9395773 39.1972222,20.0365775 C39.7218748,19.1335778 39.9842011,18.1543507 39.9842011,17.0988964 L41.6281126,17.0988964 C41.5348411,18.6234415 41.2375379,19.9310321 40.7362032,21.0216682 C40.2348685,22.1123043 39.5936264,22.9977131 38.8124769,23.6778948 C38.0313275,24.3580764 37.1977128,24.862349 36.3116328,25.1907126 C35.4255528,25.5190761 34.5394729,25.6832579 33.6533929,25.6832579 C32.3709087,25.6832579 31.2458204,25.4838943 30.2781278,25.0851672 C29.3104352,24.68644 28.5584331,24.0883492 28.0221215,23.2908949 C27.48581,22.4934405 27.2176542,21.5083499 27.2176542,20.3356229 C27.2176542,19.0456232 27.5615931,17.9491235 28.249471,17.0461237 C28.9373489,16.143124 29.9691657,15.4570787 31.3449214,14.9879879 C32.6507235,14.5423516 34.0148203,14.2491699 35.4372118,14.1084427 C36.8596033,13.9677154 38.5268327,13.8973518 40.4389,13.8973518 Z" id="Shape"></path>
                <path d="M53.2759826,25.6824761 C51.6419832,25.6824761 50.2297408,25.2954917 49.0392556,24.5215228 C47.8487703,23.747554 46.9383992,22.6276445 46.3081423,21.1617943 C45.6778854,19.6959442 45.362757,17.9545142 45.362757,15.9375044 C45.362757,12.7712682 46.0747138,10.3438203 47.4986276,8.65516098 C48.9225413,6.96650162 50.8483263,6.12217195 53.2759826,6.12217195 C55.4235246,6.12217195 57.1333883,6.96063822 58.4055735,8.63757078 C59.6777587,10.3145033 60.3138514,12.7478146 60.3138514,15.9375044 C60.3138514,17.907607 60.0279015,19.6255834 59.4560017,21.0914335 C58.8841019,22.5572836 58.0729379,23.6889199 57.0225097,24.4863424 C55.9720816,25.2837649 54.7232392,25.6824761 53.2759826,25.6824761 Z M53.4860682,23.0087655 C55.1200676,23.0087655 56.3630743,22.4048352 57.2150882,21.1969747 C58.0671022,19.9891142 58.4931092,18.2359575 58.4931092,15.9375044 C58.4931092,13.662505 58.0554308,11.9034849 57.180074,10.660444 C56.3047171,9.41740305 55.0733819,8.79588259 53.4860682,8.79588259 C51.8754117,8.79588259 50.6440764,9.41153965 49.7920624,10.6428538 C48.9400485,11.8741679 48.5140415,13.6390514 48.5140415,15.9375044 C48.5140415,18.1890502 48.9517199,19.9304802 49.8270767,21.1617943 C50.7024335,22.3931084 51.9220974,23.0087655 53.4860682,23.0087655 Z M58.4931092,33 L58.4931092,6.57951719 L61.5743652,6.57951719 L61.5743652,33 L58.4931092,33 Z" id="Shape"></path>
                <path d="M79.719468,6.57013575 L79.719468,25.2608685 L76.6471039,25.2608685 L76.6471039,6.57013575 L79.719468,6.57013575 Z M76.6471039,17.6226594 L78.1134595,17.6226594 C78.0203575,19.4060815 77.6595875,20.8961776 77.0311494,22.0929477 C76.4027113,23.2897178 75.5764316,24.1872953 74.5523102,24.7856804 C73.5281889,25.3840654 72.3527769,25.6832579 71.0260742,25.6832579 C69.7459225,25.6832579 68.640337,25.4309976 67.7093176,24.9264768 C66.7782982,24.4219561 66.0683959,23.6769081 65.5796107,22.6913327 C65.0908255,21.7057574 64.8464329,20.4972542 64.8464329,19.0658234 L64.8464329,6.57013575 L67.9187969,6.57013575 L67.9187969,18.4322392 C67.9187969,19.3708824 68.0584499,20.1863287 68.3377557,20.878578 C68.6170615,21.5708274 69.047658,22.1046807 69.6295451,22.480138 C70.2114322,22.8555953 70.9562478,23.0433239 71.8639917,23.0433239 C72.6088072,23.0433239 73.2779774,22.8907944 73.8715023,22.5857354 C74.4650272,22.2806763 74.9654501,21.8641534 75.3727711,21.3361666 C75.7800921,20.8081798 76.0943111,20.2215278 76.3154282,19.5762106 C76.5365454,18.9308934 76.6471039,18.2797097 76.6471039,17.6226594 Z" id="Shape"></path>
                <path d="M82.8428053,25.2352941 L82.8428053,6.62426471 L85.9661427,6.62426471 L85.9661427,25.2352941 L82.8428053,25.2352941 Z M82.8428053,4.13578431 L82.8428053,0 L85.9661427,0 L85.9661427,4.13578431 L82.8428053,4.13578431 Z" id="Shape"></path>
                <path d="M89.08948,25.3846154 L89.08948,6.72824062 L92.1797662,6.72824062 L92.1797662,25.3846154 L89.08948,25.3846154 Z M92.1797662,14.3524088 L90.7048569,14.3524088 C90.8219132,12.5722651 91.1906405,11.0849082 91.8110389,9.89033804 C92.4314373,8.6957679 93.2683898,7.79398456 94.3218964,7.18498802 C95.3754031,6.57599148 96.5810829,6.27149321 97.9389359,6.27149321 C99.2733777,6.27149321 100.408824,6.52328986 101.345274,7.02688315 C102.281724,7.53047644 103.001621,8.27415491 103.504963,9.25791855 C104.008305,10.2416822 104.259976,11.4596753 104.259976,12.9118978 L104.259976,25.3846154 L101.16969,25.3846154 L101.16969,13.5443173 C101.16969,12.6073995 101.023369,11.7934522 100.730729,11.1024754 C100.438088,10.4114985 99.9932739,9.87277083 99.3962868,9.48629225 C98.7992997,9.09981368 98.0325809,8.90657439 97.0961306,8.90657439 C96.323559,8.90657439 95.6329269,9.06467927 95.0242342,9.38088901 C94.4155414,9.69709875 93.9004938,10.112856 93.4790911,10.6281608 C93.0576884,11.1434655 92.7357836,11.7231834 92.5133767,12.3673143 C92.2909697,13.0114453 92.1797662,13.6731435 92.1797662,14.3524088 Z" id="Shape"></path>
                <path d="M110.198476,12.6659885 L107.120514,12.6659885 C107.330375,11.2821706 107.761756,10.10358 108.414657,9.13021664 C109.067558,8.15685325 109.941979,7.41217162 111.03792,6.89617175 C112.133861,6.38017188 113.439663,6.12217195 114.955327,6.12217195 C116.610897,6.12217195 117.986653,6.42708096 119.082594,7.03689899 C120.178535,7.64671702 120.994661,8.49694407 121.530973,9.58758016 C122.067284,10.6782163 122.33544,11.950625 122.33544,13.4048065 L122.33544,20.7578046 C122.33544,21.8367134 122.387905,22.7279859 122.492836,23.4316221 C122.597766,24.1352583 122.766821,24.7450763 123,25.2610762 L119.747154,25.2610762 C119.513975,24.7919854 119.374067,24.2056219 119.327432,23.5019857 C119.280796,22.7983496 119.257478,22.1064406 119.257478,21.426259 L119.257478,13.4751701 C119.257478,11.9740796 118.890221,10.8189435 118.155708,10.0097619 C117.421194,9.20058026 116.261129,8.79598945 114.675512,8.79598945 C113.346392,8.79598945 112.314575,9.14194391 111.580061,9.83385283 C110.845548,10.5257617 110.385019,11.469807 110.198476,12.6659885 Z M119.712177,13.8973518 L119.712177,16.2193512 C117.636884,16.2193512 115.940508,16.319033 114.623047,16.5183966 C113.305586,16.7177602 112.285428,16.9992147 111.562573,17.36276 C110.839718,17.7263054 110.338384,18.1543507 110.058569,18.6468961 C109.778754,19.1394414 109.638847,19.6788958 109.638847,20.2652593 C109.638847,21.1330772 109.971127,21.8073953 110.635687,22.2882133 C111.300247,22.7690314 112.168838,23.0094404 113.241461,23.0094404 C114.384038,23.0094404 115.410026,22.7397132 116.319423,22.2002588 C117.228821,21.6608044 117.945846,20.9395773 118.470499,20.0365775 C118.995152,19.1335778 119.257478,18.1543507 119.257478,17.0988964 L120.90139,17.0988964 C120.808118,18.6234415 120.510815,19.9310321 120.00948,21.0216682 C119.508145,22.1123043 118.866903,22.9977131 118.085754,23.6778948 C117.304604,24.3580764 116.47099,24.862349 115.58491,25.1907126 C114.69883,25.5190761 113.81275,25.6832579 112.92667,25.6832579 C111.644186,25.6832579 110.519097,25.4838943 109.551405,25.0851672 C108.583712,24.68644 107.83171,24.0883492 107.295398,23.2908949 C106.759087,22.4934405 106.490931,21.5083499 106.490931,20.3356229 C106.490931,19.0456232 106.83487,17.9491235 107.522748,17.0461237 C108.210626,16.143124 109.242443,15.4570787 110.618198,14.9879879 C111.924,14.5423516 113.288097,14.2491699 114.710489,14.1084427 C116.13288,13.9677154 117.80011,13.8973518 119.712177,13.8973518 Z" id="Shape"></path>
            </g>
        </g>
    </g>
</svg>