<?xml version="1.0" encoding="UTF-8"?>
<svg width="193px" height="37px" viewBox="0 0 193 37" version="1.1" xmlns="http://www.w3.org/2000/svg" xmlns:xlink="http://www.w3.org/1999/xlink">
    <title>MarioChavez@1x</title>
    <defs>
        <path d="M0,23.9358438 C0.113930606,23.7647606 0.243397204,23.5108089 0.388399793,23.1739888 C0.533402382,22.8371688 0.647332988,22.4121339 0.730191611,21.8988842 C0.844122216,21.1503952 0.970999482,20.308345 1.11082341,19.3727336 C1.25064733,18.4371223 1.39564992,17.4560669 1.54583118,16.4295676 C1.69601243,15.4030683 1.84619368,14.3525105 1.99637494,13.277894 C2.14655619,12.2032775 2.29155878,11.1447001 2.4313827,10.1021618 C2.57120663,9.05962343 2.70585189,8.05450953 2.83531849,7.08682008 C2.96478509,6.11913064 3.08130502,5.23430962 3.1848783,4.43235704 C3.28845158,3.63040446 3.37389953,2.93270572 3.44122216,2.33926081 C3.5085448,1.7458159 3.5577421,1.29939563 3.58881409,1 L5.56188503,1 L15.3340238,19.8619247 L25.0284827,1 L26.5044019,1 L29.0523045,20.0543933 C29.1248058,20.6531846 29.2024858,21.1664342 29.2853444,21.5941423 C29.368203,22.0218503 29.4510616,22.3880753 29.5339202,22.6928173 C29.6167789,22.9975593 29.6970482,23.2488377 29.7747281,23.4466527 C29.8524081,23.6444677 29.9274987,23.8075314 30,23.9358438 L30,24 L26.0849301,24 L26.0849301,23.9358438 C26.1367167,23.8182241 26.185914,23.6257555 26.232522,23.3584379 C26.27913,23.0911204 26.302434,22.7703394 26.302434,22.3960948 C26.302434,22.2570897 26.2972553,22.1154114 26.286898,21.97106 C26.2765407,21.8267085 26.2610047,21.6689912 26.24029,21.4979079 L24.2672191,6.13249651 L15.1009839,23.9358438 L14.0290005,23.8075314 L4.80062144,5.972106 C4.43811497,8.50627615 4.12221647,10.8479777 3.85292595,12.9972106 C3.73899534,13.9167829 3.62506473,14.833682 3.51113413,15.7479079 C3.39720352,16.6621339 3.29621958,17.5148768 3.20818229,18.3061367 C3.120145,19.0973966 3.05023304,19.7950953 2.9984464,20.3992329 C2.94665976,21.0033705 2.92076644,21.4497908 2.92076644,21.7384937 C2.92076644,22.1020456 2.93112377,22.4228266 2.95183843,22.7008368 C2.97255308,22.978847 2.99326774,23.2140865 3.01398239,23.4065551 C3.04505438,23.6311018 3.07612636,23.8289168 3.10719834,24 L0,24 L0,23.9358438 Z" id="path-1"></path>
        <path d="M32,18.9896422 C32,18.1465788 32.1751347,17.4155681 32.5254042,16.7966102 C32.8756736,16.1776522 33.3418014,15.6494036 33.9237875,15.2118644 C34.5057737,14.7743252 35.1685912,14.4194915 35.9122402,14.1473635 C36.6558891,13.8752354 37.4264819,13.6618016 38.2240185,13.5070621 C39.021555,13.3523227 39.8083141,13.2456058 40.5842956,13.1869115 C41.3602771,13.1282172 42.0715935,13.0935342 42.7182448,13.0828625 L42.7182448,12.2664783 C42.7182448,11.5621469 42.6266359,10.9538606 42.443418,10.4416196 C42.2602002,9.92937853 42.0015396,9.50517891 41.6674365,9.16902072 C41.3333333,8.83286252 40.9318707,8.58207784 40.4630485,8.41666667 C39.9942263,8.25125549 39.4795997,8.16854991 38.9191686,8.16854991 C38.5311778,8.16854991 38.1485758,8.20056497 37.7713626,8.2645951 C37.3941493,8.32862524 37.0034642,8.43534212 36.5993072,8.58474576 C36.1951501,8.7341494 35.769438,8.93691149 35.3221709,9.19303202 C34.8749038,9.44915254 34.3926097,9.77463905 33.8752887,10.1694915 L33.7136259,10.0734463 L34.812933,7.81638418 C35.1685912,7.65630885 35.5188607,7.52558067 35.8637413,7.42419962 C36.208622,7.32281858 36.5588915,7.24011299 36.9145497,7.17608286 C37.2702079,7.11205273 37.6339492,7.06669805 38.0057737,7.04001883 C38.3775982,7.01333961 38.7682833,7 39.1778291,7 C40.3094688,7 41.2767513,7.13606403 42.0796767,7.40819209 C42.882602,7.68032015 43.5400308,8.05382925 44.051963,8.5287194 C44.5638953,9.00360954 44.9384142,9.55853735 45.1755196,10.1935028 C45.4126251,10.8284683 45.5311778,11.5087884 45.5311778,12.2344633 L45.5311778,17.452919 C45.5311778,18.3600126 45.5446497,19.1523854 45.5715935,19.8300377 C45.5985373,20.5076899 45.6308699,21.0919648 45.6685912,21.5828625 C45.7063125,22.0737602 45.7548114,22.4846202 45.8140878,22.8154426 C45.8733641,23.1462649 45.9353349,23.4237288 46,23.6478343 L46,23.7118644 L42.4272517,23.7118644 L42.4272517,23.6478343 C42.4811393,23.4770873 42.521555,23.2849969 42.5484988,23.0715631 C42.5754426,22.8581293 42.5996921,22.6020088 42.6212471,22.3032015 C42.3949192,22.4952919 42.1281755,22.6927181 41.8210162,22.8954802 C41.5138568,23.0982423 41.1635874,23.2823289 40.7702079,23.4477401 C40.3768283,23.6131513 39.9403387,23.7465474 39.460739,23.8479284 C38.9811393,23.9493095 38.4557352,24 37.8845266,24 C36.0092379,24 34.5596613,23.5651287 33.5357968,22.6953861 C32.5119323,21.8256434 32,20.5903955 32,18.9896422 Z M42.7182448,14.3314501 C41.7374904,14.3421218 40.7944573,14.3981481 39.8891455,14.4995292 C38.9838337,14.6009102 38.1836028,14.8116761 37.4884527,15.1318267 C36.7933025,15.4519774 36.2382602,15.9081921 35.8233256,16.5004708 C35.4083911,17.0927495 35.2009238,17.8797866 35.2009238,18.8615819 C35.2009238,20.1208412 35.5188607,21.0812932 36.1547344,21.7429379 C36.7906082,22.4045825 37.6689761,22.7354049 38.7898383,22.7354049 C39.3071594,22.7354049 39.7786759,22.663371 40.204388,22.5193032 C40.6301001,22.3752354 41.0073133,22.1938167 41.3360277,21.9750471 C41.6647421,21.7562775 41.9422633,21.5161645 42.1685912,21.2547081 C42.3949192,20.9932517 42.5673595,20.7397991 42.6859122,20.4943503 C42.7074673,20.0888261 42.7182448,19.6379473 42.7182448,19.1417137 C42.7182448,18.6454802 42.7182448,18.0825487 42.7182448,17.452919 L42.7182448,14.3314501 Z" id="path-2"></path>
        <path d="M50.4705015,13.2988506 C50.4705015,12.4303959 50.4569813,11.6717752 50.429941,11.0229885 C50.4029007,10.3742018 50.3704523,9.81481481 50.3325959,9.34482759 C50.2947394,8.87484036 50.2460669,8.48148148 50.1865782,8.16475096 C50.1270895,7.84802043 50.0648968,7.58237548 50,7.36781609 L50,7.30651341 L53.7477876,7.30651341 L53.7477876,7.36781609 C53.6612586,7.60280971 53.5882498,7.88888889 53.5287611,8.22605364 C53.4692724,8.56321839 53.4233038,8.99744572 53.3908555,9.52873563 C53.7910521,9.21200511 54.207473,8.90038314 54.640118,8.59386973 C55.072763,8.28735632 55.5162242,8.01660281 55.9705015,7.7816092 C56.4247788,7.54661558 56.8871681,7.35759898 57.3576696,7.21455939 C57.8281711,7.0715198 58.3013766,7 58.7772861,7 C59.0693215,7 59.3235005,7.01277139 59.539823,7.03831418 C59.7561455,7.06385696 59.9508358,7.09961686 60.1238938,7.14559387 C60.2969518,7.19157088 60.4537856,7.24265645 60.5943953,7.29885057 C60.7350049,7.3550447 60.8702065,7.40868455 61,7.45977011 L60.2050147,10.3869732 L59.9292035,10.3256705 C59.79941,9.8761175 59.5560472,9.51596424 59.199115,9.24521073 C58.8421829,8.97445722 58.3554572,8.83908046 57.7389381,8.83908046 C57.4036382,8.83908046 57.0521141,8.89527458 56.6843658,9.00766284 C56.3166175,9.12005109 55.9434612,9.27586207 55.5648968,9.47509579 C55.1863324,9.6743295 54.8077679,9.90421456 54.4292035,10.164751 C54.0506391,10.4252874 53.6828909,10.6985951 53.3259587,10.9846743 C53.3043265,11.2809706 53.2935103,11.6028097 53.2935103,11.9501916 C53.2935103,12.2975734 53.2935103,12.6653895 53.2935103,13.0536398 L53.2935103,17.0076628 C53.2935103,17.8761175 53.3043265,18.6347382 53.3259587,19.2835249 C53.347591,19.9323116 53.3800393,20.4916986 53.4233038,20.9616858 C53.4665683,21.4316731 53.5152409,21.8250319 53.5693215,22.1417625 C53.6234022,22.458493 53.6828909,22.7241379 53.7477876,22.9386973 L53.7477876,23 L50,23 L50,22.9386973 C50.0648968,22.7241379 50.1270895,22.458493 50.1865782,22.1417625 C50.2460669,21.8250319 50.2947394,21.4316731 50.3325959,20.9616858 C50.3704523,20.4916986 50.4029007,19.9323116 50.429941,19.2835249 C50.4569813,18.6347382 50.4705015,17.8761175 50.4705015,17.0076628 L50.4705015,13.2988506 Z" id="path-3"></path>
        <path d="M63.5021645,13.8472803 C63.5021645,12.9384007 63.4877345,12.1444677 63.4588745,11.4654812 C63.4300144,10.7864947 63.3953824,10.2010693 63.3549784,9.70920502 C63.3145743,9.21734077 63.2626263,8.80567178 63.1991342,8.47419805 C63.1356421,8.14272431 63.0692641,7.86471409 63,7.64016736 L63,7.57601116 L67,7.57601116 L67,7.64016736 C66.9307359,7.86471409 66.8672439,8.14272431 66.8095238,8.47419805 C66.7518038,8.80567178 66.6998557,9.21734077 66.6536797,9.70920502 C66.6075036,10.2010693 66.5728716,10.7864947 66.5497835,11.4654812 C66.5266955,12.1444677 66.5151515,12.9384007 66.5151515,13.8472803 L66.5151515,17.7287308 C66.5151515,18.6376104 66.5266955,19.4315435 66.5497835,20.11053 C66.5728716,20.7895165 66.6075036,21.3749419 66.6536797,21.8668061 C66.6998557,22.3586704 66.7518038,22.7703394 66.8095238,23.1018131 C66.8672439,23.4332868 66.9307359,23.7112971 67,23.9358438 L67,24 L63,24 L63,23.9358438 C63.0692641,23.7112971 63.1356421,23.4332868 63.1991342,23.1018131 C63.2626263,22.7703394 63.3145743,22.3586704 63.3549784,21.8668061 C63.3953824,21.3749419 63.4300144,20.7895165 63.4588745,20.11053 C63.4877345,19.4315435 63.5021645,18.6376104 63.5021645,17.7287308 L63.5021645,13.8472803 Z M63.1385281,2.71617852 C63.1385281,2.4809391 63.1875902,2.25906555 63.2857143,2.05055788 C63.3838384,1.84205021 63.5137085,1.66027429 63.6753247,1.50523013 C63.8369408,1.35018596 64.030303,1.2272199 64.2554113,1.13633194 C64.4805195,1.04544398 64.7258297,1 64.991342,1 C65.2568543,1 65.5021645,1.04544398 65.7272727,1.13633194 C65.952381,1.2272199 66.1486291,1.35018596 66.3160173,1.50523013 C66.4834055,1.66027429 66.6161616,1.84205021 66.7142857,2.05055788 C66.8124098,2.25906555 66.8614719,2.4809391 66.8614719,2.71617852 C66.8614719,3.20804277 66.6825397,3.61971176 66.3246753,3.9511855 C65.966811,4.28265923 65.5223665,4.44839609 64.991342,4.44839609 C64.7258297,4.44839609 64.4805195,4.40295212 64.2554113,4.31206416 C64.030303,4.2211762 63.8369408,4.09821013 63.6753247,3.94316597 C63.5137085,3.7881218 63.3838384,3.60634589 63.2857143,3.39783821 C63.1875902,3.18933054 63.1385281,2.96211065 63.1385281,2.71617852 Z" id="path-4"></path>
        <path d="M70,15.4679245 C70,14.2597484 70.2181485,13.1397799 70.6544455,12.1080189 C71.0907424,11.0762579 71.6906508,10.1808176 72.4541705,9.42169811 C73.2176902,8.66257862 74.1188512,8.06918239 75.1576535,7.64150943 C76.1964559,7.21383648 77.3131683,7 78.507791,7 C79.6816376,7 80.7853651,7.2004717 81.8189734,7.60141509 C82.8525817,8.00235849 83.7537427,8.57169811 84.5224565,9.30943396 C85.2911702,10.0471698 85.8962725,10.945283 86.3377635,12.0037736 C86.7792545,13.0622642 87,14.2490566 87,15.5641509 C87,16.6654088 86.8130156,17.7238994 86.4390467,18.7396226 C86.0650779,19.7553459 85.5145127,20.6534591 84.7873511,21.4339623 C84.0601894,22.2144654 83.1694164,22.8372642 82.1150321,23.3023585 C81.0606477,23.7674528 79.847846,24 78.4766269,24 C77.3131683,24 76.2172319,23.8022013 75.1888176,23.4066038 C74.1604033,23.0110063 73.2618393,22.4443396 72.4931256,21.7066038 C71.7244119,20.9688679 71.1167125,20.0734277 70.6700275,19.020283 C70.2233425,17.9671384 70,16.7830189 70,15.4679245 Z M78.8350137,22.8292453 C79.5725634,22.8292453 80.2503819,22.6795597 80.8684693,22.3801887 C81.4865567,22.0808176 82.0189429,21.6477987 82.4656279,21.0811321 C82.9123129,20.5144654 83.2603116,19.8248428 83.5096242,19.0122642 C83.7589368,18.1996855 83.883593,17.2801887 83.883593,16.2537736 C83.883593,15.0990566 83.7641308,14.0272013 83.5252062,13.0382075 C83.2862817,12.0492138 82.9304919,11.1938679 82.4578368,10.4721698 C81.9851818,9.7504717 81.3904675,9.18647799 80.6736939,8.78018868 C79.9569203,8.37389937 79.1206844,8.17075472 78.1649863,8.17075472 C77.4274366,8.17075472 76.7522151,8.3177673 76.1393217,8.61179245 C75.5264284,8.90581761 74.9940422,9.33081761 74.5421632,9.88679245 C74.0902841,10.4427673 73.7396884,11.1243711 73.4903758,11.9316038 C73.2410632,12.7388365 73.116407,13.6556604 73.116407,14.6820755 C73.116407,15.8367925 73.2384662,16.9113208 73.4825848,17.9056604 C73.7267033,18.9 74.0876871,19.7633648 74.5655362,20.4957547 C75.0433853,21.2281447 75.6380996,21.8001572 76.3496792,22.2117925 C77.0612588,22.6234277 77.8897036,22.8292453 78.8350137,22.8292453 Z" id="path-5"></path>
        <path d="M108.31962,4.76897246 L108.177215,4.8307589 C107.35443,4.08932169 106.365506,3.4972017 105.210443,3.05439893 C104.05538,2.61159615 102.78692,2.39019476 101.405063,2.39019476 C100.075949,2.39019476 98.8575949,2.59357511 97.75,3.0003358 C96.6424051,3.40709649 95.6904008,3.99664204 94.8939873,4.76897246 C94.0975738,5.54130289 93.4778481,6.48869487 93.0348101,7.61114842 C92.5917722,8.73360197 92.3702532,10.0105216 92.3702532,11.4419073 C92.3702532,13.0174614 92.5812236,14.4874636 93.0031646,15.851914 C93.4251055,17.2163645 94.0527426,18.39803 94.8860759,19.3969107 C95.7194093,20.3957914 96.7610759,21.180994 98.0110759,21.7525185 C99.2610759,22.324043 100.719409,22.6098052 102.386076,22.6098052 C102.987342,22.6098052 103.588608,22.5480188 104.189873,22.4244459 C104.791139,22.3008731 105.368671,22.1180882 105.922468,21.8760913 C106.476266,21.6340945 106.998418,21.3406089 107.488924,20.9956347 C107.97943,20.6506604 108.425105,20.2567719 108.825949,19.8139691 L109,19.9220954 L107.734177,23.0732035 C106.943038,23.3718379 106.070148,23.6009626 105.115506,23.7605776 C104.160865,23.9201925 103.198312,24 102.227848,24 C100.276371,24 98.4910338,23.7245355 96.8718354,23.1736064 C95.2526371,22.6226774 93.8602321,21.8426237 92.6946203,20.8334453 C91.5290084,19.8242668 90.6218354,18.6117081 89.9731013,17.195769 C89.3243671,15.7798299 89,14.2068502 89,12.4768301 C89,11.4985449 89.1292194,10.5357063 89.3876582,9.5883143 C89.646097,8.64092232 90.0232068,7.73987016 90.5189873,6.88515782 C91.0147679,6.03044549 91.6265823,5.24524289 92.3544304,4.52955003 C93.0822785,3.81385717 93.9129747,3.1934184 94.846519,2.66823371 C95.7800633,2.14304903 96.8085443,1.7337139 97.931962,1.44022834 C99.0553797,1.14674278 100.271097,1 101.579114,1 C103.614979,1 105.503165,1.3037833 107.243671,1.9113499 L108.31962,4.76897246 Z" id="path-6"></path>
        <path d="M122.922742,13.1799331 C122.922742,11.7672241 122.653609,10.729097 122.115343,10.0655518 C121.577077,9.40200669 120.856003,9.07023411 119.952122,9.07023411 C119.616975,9.07023411 119.243743,9.14247492 118.832427,9.28695652 C118.42111,9.43143813 117.999637,9.62675585 117.568009,9.8729097 C117.13638,10.1190635 116.707291,10.4053512 116.28074,10.7317726 C115.854189,11.058194 115.458107,11.4033445 115.092492,11.7672241 L115.092492,17.7230769 C115.092492,18.6327759 115.102648,19.4274247 115.12296,20.1070234 C115.143272,20.7866221 115.17374,21.3725753 115.214363,21.8648829 C115.254987,22.3571906 115.300689,22.7692308 115.351469,23.1010033 C115.402249,23.4327759 115.458107,23.7110368 115.519042,23.935786 L115.519042,24 L112,24 L112,23.935786 C112.060936,23.7110368 112.119333,23.4327759 112.17519,23.1010033 C112.231048,22.7692308 112.27675,22.3571906 112.312296,21.8648829 C112.347842,21.3725753 112.37831,20.7866221 112.4037,20.1070234 C112.42909,19.4274247 112.441785,18.6327759 112.441785,17.7230769 L112.441785,6.27692308 C112.441785,5.36722408 112.42909,4.57257525 112.4037,3.89297659 C112.37831,3.21337793 112.347842,2.62742475 112.312296,2.13511706 C112.27675,1.64280936 112.231048,1.23076923 112.17519,0.898996656 C112.119333,0.56722408 112.060936,0.288963211 112,0.0642140468 L112,0 L115.519042,0 L115.519042,0.0642140468 C115.458107,0.288963211 115.402249,0.56722408 115.351469,0.898996656 C115.300689,1.23076923 115.254987,1.64280936 115.214363,2.13511706 C115.17374,2.62742475 115.143272,3.21337793 115.12296,3.89297659 C115.102648,4.57257525 115.092492,5.36722408 115.092492,6.27692308 L115.092492,10.3866221 C115.498731,10.0013378 115.948132,9.62140468 116.440696,9.24682274 C116.933261,8.8722408 117.443598,8.53511706 117.971708,8.23545151 C118.499819,7.93578595 119.038085,7.69498328 119.586507,7.51304348 C120.134929,7.33110368 120.673196,7.24013378 121.201306,7.24013378 C121.993471,7.24013378 122.666304,7.38461538 123.219804,7.6735786 C123.773304,7.96254181 124.225245,8.34247492 124.575626,8.81337793 C124.926007,9.28428094 125.179906,9.82207358 125.337323,10.4267559 C125.494741,11.0314381 125.573449,11.6441472 125.573449,12.2648829 L125.573449,17.7230769 C125.573449,18.6327759 125.583605,19.4274247 125.603917,20.1070234 C125.624229,20.7866221 125.654697,21.3725753 125.695321,21.8648829 C125.735945,22.3571906 125.781647,22.7692308 125.832427,23.1010033 C125.883206,23.4327759 125.939064,23.7110368 126,23.935786 L126,24 L122.480958,24 L122.480958,23.935786 C122.541893,23.7110368 122.60029,23.4327759 122.656148,23.1010033 C122.712006,22.7692308 122.757708,22.3571906 122.793254,21.8648829 C122.828799,21.3725753 122.859267,20.7866221 122.884657,20.1070234 C122.910047,19.4274247 122.922742,18.6327759 122.922742,17.7230769 L122.922742,13.1799331 Z" id="path-7"></path>
        <path d="M129,18.9752508 C129,18.1297659 129.175135,17.3966555 129.525404,16.7759197 C129.875674,16.1551839 130.341801,15.6254181 130.923788,15.1866221 C131.505774,14.7478261 132.168591,14.3919732 132.91224,14.1190635 C133.655889,13.8461538 134.426482,13.632107 135.224018,13.4769231 C136.021555,13.3217391 136.808314,13.2147157 137.584296,13.1558528 C138.360277,13.09699 139.071594,13.0622074 139.718245,13.051505 L139.718245,12.2327759 C139.718245,11.5264214 139.626636,10.916388 139.443418,10.4026756 C139.2602,9.88896321 139.00154,9.46354515 138.667436,9.1264214 C138.333333,8.78929766 137.931871,8.53779264 137.463048,8.37190635 C136.994226,8.20602007 136.4796,8.12307692 135.919169,8.12307692 C135.531178,8.12307692 135.148576,8.15518395 134.771363,8.21939799 C134.394149,8.28361204 134.003464,8.39063545 133.599307,8.54046823 C133.19515,8.690301 132.769438,8.89364548 132.322171,9.15050167 C131.874904,9.40735786 131.39261,9.73377926 130.875289,10.1297659 L130.713626,10.0334448 L131.812933,7.76989967 C132.168591,7.60936455 132.518861,7.47826087 132.863741,7.37658863 C133.208622,7.27491639 133.558891,7.19197324 133.91455,7.1277592 C134.270208,7.06354515 134.633949,7.0180602 135.005774,6.99130435 C135.377598,6.96454849 135.768283,6.95117057 136.177829,6.95117057 C137.309469,6.95117057 138.276751,7.08762542 139.079677,7.36053512 C139.882602,7.63344482 140.540031,8.00802676 141.051963,8.48428094 C141.563895,8.96053512 141.938414,9.51705686 142.17552,10.1538462 C142.412625,10.7906355 142.531178,11.4729097 142.531178,12.2006689 L142.531178,17.4341137 C142.531178,18.3438127 142.54465,19.1384615 142.571594,19.8180602 C142.598537,20.4976589 142.63087,21.083612 142.668591,21.5759197 C142.706313,22.0682274 142.754811,22.4802676 142.814088,22.8120401 C142.873364,23.1438127 142.935335,23.4220736 143,23.6468227 L143,23.7110368 L139.427252,23.7110368 L139.427252,23.6468227 C139.481139,23.4755853 139.521555,23.2829431 139.548499,23.0688963 C139.575443,22.8548495 139.599692,22.5979933 139.621247,22.2983278 C139.394919,22.4909699 139.128176,22.6889632 138.821016,22.8923077 C138.513857,23.0956522 138.163587,23.2802676 137.770208,23.4461538 C137.376828,23.6120401 136.940339,23.7458194 136.460739,23.8474916 C135.981139,23.9491639 135.455735,24 134.884527,24 C133.009238,24 131.559661,23.5638796 130.535797,22.6916388 C129.511932,21.819398 129,20.580602 129,18.9752508 Z M139.718245,14.3036789 C138.73749,14.3143813 137.794457,14.3705686 136.889145,14.4722408 C135.983834,14.573913 135.183603,14.7852843 134.488453,15.1063545 C133.793303,15.4274247 133.23826,15.8849498 132.823326,16.4789298 C132.408391,17.0729097 132.200924,17.8622074 132.200924,18.8468227 C132.200924,20.109699 132.518861,21.0729097 133.154734,21.7364548 C133.790608,22.4 134.668976,22.7317726 135.789838,22.7317726 C136.307159,22.7317726 136.778676,22.6595318 137.204388,22.5150502 C137.6301,22.3705686 138.007313,22.1886288 138.336028,21.9692308 C138.664742,21.7498328 138.942263,21.5090301 139.168591,21.2468227 C139.394919,20.9846154 139.56736,20.7304348 139.685912,20.4842809 C139.707467,20.077592 139.718245,19.6254181 139.718245,19.1277592 C139.718245,18.6301003 139.718245,18.0655518 139.718245,17.4341137 L139.718245,14.3036789 Z M141.73903,2.50434783 C140.941493,2.77190635 140.133179,3.05551839 139.314088,3.35518395 C138.95843,3.48361204 138.586605,3.62274247 138.198614,3.77257525 C137.810624,3.92240803 137.417244,4.08294314 137.018476,4.2541806 C136.619707,4.42541806 136.218245,4.5993311 135.814088,4.77591973 C135.409931,4.95250836 135.024634,5.13712375 134.658199,5.32976589 L134.30254,4.73578595 C135.003079,4.27558528 135.700924,3.77257525 136.396074,3.22675585 C137.091224,2.68093645 137.729792,2.16722408 138.311778,1.68561873 C138.979985,1.12909699 139.626636,0.56722408 140.251732,0 L141.73903,2.50434783 Z" id="path-8"></path>
        <path d="M148.179462,7 L148.179462,7.06165703 C148.158192,7.11303789 148.14224,7.19010918 148.131605,7.29287091 C148.12097,7.39563263 148.115653,7.48811818 148.115653,7.57032755 C148.115653,7.88888889 148.163509,8.24084778 148.259222,8.62620424 C148.354935,9.01156069 148.525091,9.49197174 148.769691,10.0674374 L152.582253,18.8381503 L156.442672,10.1907514 C156.602193,9.81053308 156.77235,9.39434811 156.953141,8.94219653 C157.133932,8.49004496 157.224327,8.0327553 157.224327,7.57032755 C157.224327,7.43673732 157.213692,7.32626846 157.192423,7.238921 C157.171153,7.15157354 157.149884,7.09248555 157.128614,7.06165703 L157.128614,7 L160,7 L160,7.06165703 C159.808574,7.2569043 159.566633,7.60372511 159.274177,8.10211946 C158.981722,8.60051381 158.670655,9.22479127 158.340977,9.97495183 L152.454636,23 L151.51346,23 L146.057827,10.7302505 C145.866401,10.2780989 145.661682,9.84393064 145.443669,9.42774566 C145.225656,9.01156069 145.018278,8.63904945 144.821535,8.31021195 C144.624792,7.98137444 144.451977,7.70648683 144.303091,7.48554913 C144.154204,7.26461143 144.053174,7.12331407 144,7.06165703 L144,7 L148.179462,7 Z" id="path-9"></path>
        <path d="M169.151175,24 C168.017365,24 166.955056,23.8128931 165.964249,23.4386792 C164.973442,23.0644654 164.110317,22.5165094 163.374872,21.7948113 C162.639428,21.0731132 162.059755,20.1803459 161.635853,19.1165094 C161.211951,18.052673 161,16.836478 161,15.4679245 C161,14.2597484 161.194076,13.1397799 161.582227,12.1080189 C161.970378,11.0762579 162.506639,10.1808176 163.191011,9.42169811 C163.875383,8.66257862 164.674668,8.06918239 165.588866,7.64150943 C166.503064,7.21383648 167.491318,7 168.553626,7 C169.60572,7 170.581205,7.18977987 171.480082,7.56933962 C172.378958,7.94889937 173.157814,8.4995283 173.81665,9.22122642 C174.475485,9.94292453 174.996425,10.8356918 175.379469,11.8995283 C175.762513,12.9633648 175.969356,14.1742138 176,15.5320755 C174.845761,15.5106918 173.691522,15.4946541 172.537283,15.4839623 C171.383044,15.4732704 170.18284,15.4679245 168.93667,15.4679245 C168.048008,15.4679245 167.182329,15.4732704 166.339632,15.4839623 C165.496936,15.4946541 164.738509,15.5106918 164.064351,15.5320755 C164.125638,16.6440252 164.291624,17.6490566 164.562308,18.5471698 C164.832993,19.445283 165.205822,20.2124214 165.680797,20.8485849 C166.155771,21.4847484 166.732891,21.9738994 167.412155,22.3160377 C168.09142,22.6581761 168.860061,22.8292453 169.71808,22.8292453 C170.310521,22.8292453 170.869765,22.7570755 171.395812,22.6127358 C171.921859,22.4683962 172.399387,22.2679245 172.828396,22.0113208 C173.257406,21.754717 173.640449,21.452673 173.977528,21.1051887 C174.314607,20.7577044 174.600613,20.3808176 174.835546,19.9745283 L175.019408,20.0707547 L173.885598,22.9254717 C173.334014,23.2248428 172.675179,23.4787736 171.909091,23.6872642 C171.143003,23.8957547 170.223698,24 169.151175,24 Z M167.113381,14.2169811 C168.134831,14.2169811 169.158836,14.2143082 170.185393,14.2089623 C171.211951,14.2036164 172.144025,14.1849057 172.981614,14.1528302 C172.889683,13.2226415 172.716037,12.3886792 172.460674,11.6509434 C172.205312,10.9132075 171.878447,10.2877358 171.480082,9.7745283 C171.081716,9.26132075 170.611849,8.86572327 170.07048,8.58773585 C169.529111,8.30974843 168.931563,8.17075472 168.277835,8.17075472 C167.685393,8.17075472 167.141471,8.30707547 166.646067,8.57971698 C166.150664,8.85235849 165.719101,9.24528302 165.351379,9.75849057 C164.983657,10.2716981 164.687436,10.8998428 164.462717,11.6429245 C164.237998,12.3860063 164.105209,13.2333333 164.064351,14.1849057 C164.524004,14.2062893 165.009193,14.2169811 165.519918,14.2169811 C166.030644,14.2169811 166.561798,14.2169811 167.113381,14.2169811 Z" id="path-10"></path>
        <path d="M181.745819,21.6769231 L186.381271,21.6769231 C187.192865,21.6769231 187.942029,21.6333333 188.628763,21.5461538 C189.315496,21.4589744 189.908584,21.3589744 190.408027,21.2461538 C190.99071,21.1230769 191.521368,20.974359 192,20.8 L191.297659,23 C191.172798,22.9897436 190.956893,22.9769231 190.649944,22.9615385 C190.342995,22.9461538 190.020438,22.9307692 189.682274,22.9153846 C189.34411,22.9 189.024155,22.8897436 188.722408,22.8846154 C188.420661,22.8794872 188.217763,22.8769231 188.113712,22.8769231 L178,22.8769231 L178,22.4923077 L188.082497,8.32307692 L184.820513,8.32307692 C183.956893,8.32307692 183.163508,8.36923077 182.440357,8.46153846 C181.717205,8.55384615 181.090301,8.65641026 180.559643,8.76923077 C179.93534,8.89230769 179.373467,9.03589744 178.874025,9.2 L179.888517,7 C180.013378,7.02051282 180.229283,7.03589744 180.536232,7.04615385 C180.843181,7.05641026 181.168339,7.06923077 181.511706,7.08461538 C181.855072,7.1 182.175028,7.11025641 182.471572,7.11538462 C182.768116,7.12051282 182.973616,7.12307692 183.088071,7.12307692 L191.875139,7.12307692 L191.875139,7.4 L181.745819,21.6769231 Z" id="path-11"></path>
    </defs>
    <g id="MarioChavez" stroke="none" stroke-width="1" fill="none" fill-rule="evenodd">
        <rect fill="#FFFFFF" x="0" y="0" width="193" height="37"></rect>
        <g id="MarioChávez" transform="translate(0, 7)" fill-rule="nonzero">
            <g id="Path">
                <use fill="#FFFFFF" xlink:href="#path-1"></use>
                <use fill="#0C4A6E" xlink:href="#path-1"></use>
            </g>
            <g id="Shape">
                <use fill="#FFFFFF" xlink:href="#path-2"></use>
                <use fill="#0C4A6E" xlink:href="#path-2"></use>
            </g>
            <g id="Path">
                <use fill="#FFFFFF" xlink:href="#path-3"></use>
                <use fill="#0C4A6E" xlink:href="#path-3"></use>
            </g>
            <g id="Shape">
                <use fill="#FFFFFF" xlink:href="#path-4"></use>
                <use fill="#0C4A6E" xlink:href="#path-4"></use>
            </g>
            <g id="Shape">
                <use fill="#FFFFFF" xlink:href="#path-5"></use>
                <use fill="#0C4A6E" xlink:href="#path-5"></use>
            </g>
            <g id="Path">
                <use fill="#FFFFFF" xlink:href="#path-6"></use>
                <use fill="#0C4A6E" xlink:href="#path-6"></use>
            </g>
            <g id="Path">
                <use fill="#FFFFFF" xlink:href="#path-7"></use>
                <use fill="#0C4A6E" xlink:href="#path-7"></use>
            </g>
            <g id="Shape">
                <use fill="#FFFFFF" xlink:href="#path-8"></use>
                <use fill="#0C4A6E" xlink:href="#path-8"></use>
            </g>
            <g id="Path">
                <use fill="#FFFFFF" xlink:href="#path-9"></use>
                <use fill="#0C4A6E" xlink:href="#path-9"></use>
            </g>
            <g id="Shape">
                <use fill="#FFFFFF" xlink:href="#path-10"></use>
                <use fill="#0C4A6E" xlink:href="#path-10"></use>
            </g>
            <g id="Path">
                <use fill="#FFFFFF" xlink:href="#path-11"></use>
                <use fill="#0C4A6E" xlink:href="#path-11"></use>
            </g>
        </g>
    </g>
</svg>