<?xml version="1.0" encoding="UTF-8"?>
<svg width="193px" height="37px" viewBox="0 0 193 37" version="1.1" xmlns="http://www.w3.org/2000/svg" xmlns:xlink="http://www.w3.org/1999/xlink">
    <title>RailsEspanol@1x</title>
    <defs>
        <linearGradient x1="27.3641518%" y1="-28.5614522%" x2="79.5888891%" y2="147.478097%" id="linearGradient-1">
            <stop stop-color="#8B5CF6" offset="0%"></stop>
            <stop stop-color="#FB7185" offset="49.2324082%"></stop>
            <stop stop-color="#DB2777" offset="100%"></stop>
        </linearGradient>
        <path d="M0,19.5098651 L0,6.3577166 L3.012031,6.3577166 L3.07265244,10.541215 L2.64674792,9.60422678 C2.83586611,8.94473472 3.15263908,8.34782552 3.59706682,7.81349918 C4.04149457,7.27917284 4.55820173,6.8572097 5.14718831,6.54760976 C5.73617489,6.23800983 6.35087377,6.08320986 6.99128495,6.08320986 C7.27651663,6.08320986 7.54847118,6.10732018 7.80714859,6.15554083 C8.06582601,6.20376147 8.2798793,6.26114534 8.44930847,6.32769243 L7.63091894,9.69702878 C7.43869196,9.60708623 7.21058433,9.52871143 6.94659607,9.46190439 C6.6826078,9.39509735 6.41589934,9.36169383 6.14647069,9.36169383 C5.72937441,9.36169383 5.3345578,9.44058853 4.96202088,9.59837791 C4.58948395,9.7561673 4.26506853,9.97621461 3.98877463,10.2585198 C3.71248073,10.5408251 3.49324612,10.8697263 3.33107079,11.2452234 C3.16889547,11.6207206 3.08780781,12.0343653 3.08780781,12.4861577 L3.08780781,19.5098651 L0,19.5098651 Z" id="path-2"></path>
        <linearGradient x1="-4.02405746%" y1="-28.5614522%" x2="120.618597%" y2="147.478097%" id="linearGradient-3">
            <stop stop-color="#8B5CF6" offset="0%"></stop>
            <stop stop-color="#FB7185" offset="49.2324082%"></stop>
            <stop stop-color="#DB2777" offset="100%"></stop>
        </linearGradient>
        <path d="M14.8997273,19.7543477 C13.815018,19.7543477 12.8317329,19.4557306 11.9498722,18.8584965 C11.0680115,18.2612623 10.3651654,17.4460605 9.84133391,16.4128909 C9.31750244,15.3797213 9.0555867,14.2092334 9.0555867,12.9014271 C9.0555867,11.5769841 9.31996356,10.4014921 9.8487173,9.37495126 C10.377471,8.34841041 11.0968326,7.54315163 12.0068019,6.95917492 C12.9167713,6.37519821 13.9437738,6.08320986 15.0878093,6.08320986 C15.7507592,6.08320986 16.3573623,6.17965115 16.9076185,6.37253373 C17.4578747,6.56541631 17.9401908,6.83472406 18.3545669,7.18045699 C18.768943,7.52618992 19.1137599,7.92436767 19.3890175,8.37499025 C19.6642752,8.82561283 19.8485359,9.30866412 19.9417996,9.82414412 L19.2784611,9.65998596 L19.2784611,6.3577166 L22.3464504,6.3577166 L22.3464504,19.5098651 L19.2532022,19.5098651 L19.2532022,16.3600561 L19.9565664,16.2411292 C19.8436136,16.6970808 19.6354541,17.1363306 19.3320878,17.5588786 C19.0287215,17.9814266 18.6483478,18.355689 18.1909667,18.6816658 C17.7335857,19.0076425 17.226464,19.267917 16.6696016,19.4624893 C16.1127392,19.6570615 15.5227811,19.7543477 14.8997273,19.7543477 Z M15.7282205,17.0279966 C16.4466105,17.0279966 17.0780839,16.8535704 17.6226407,16.5047181 C18.1671974,16.1558658 18.5925191,15.6707999 18.8986056,15.0495204 C19.204692,14.4282409 19.3577353,13.7122098 19.3577353,12.9014271 C19.3577353,12.1036419 19.204692,11.3965791 18.8986056,10.7802386 C18.5925191,10.1638982 18.1671974,9.68136681 17.6226407,9.33264447 C17.0780839,8.98392212 16.4466105,8.80956095 15.7282205,8.80956095 C15.0227837,8.80956095 14.401932,8.98392212 13.8656654,9.33264447 C13.3293987,9.68136681 12.9082221,10.1638982 12.6021356,10.7802386 C12.2960492,11.3965791 12.1430059,12.1036419 12.1430059,12.9014271 C12.1430059,13.7122098 12.2960492,14.4282409 12.6021356,15.0495204 C12.9082221,15.6707999 13.3293987,16.1558658 13.8656654,16.5047181 C14.401932,16.8535704 15.0227837,17.0279966 15.7282205,17.0279966 Z" id="path-4"></path>
        <linearGradient x1="47.7182217%" y1="-28.5614522%" x2="52.9826709%" y2="147.478097%" id="linearGradient-5">
            <stop stop-color="#8B5CF6" offset="0%"></stop>
            <stop stop-color="#FB7185" offset="49.2324082%"></stop>
            <stop stop-color="#DB2777" offset="100%"></stop>
        </linearGradient>
        <path d="M26.2591051,19.5098651 L26.2591051,6.3577166 L29.327483,6.3577166 L29.327483,19.5098651 L26.2591051,19.5098651 Z M27.7660921,3.55922951 C27.1482197,3.55922951 26.6689475,3.40429957 26.3282757,3.09443968 C25.9876039,2.78457979 25.817268,2.34630482 25.817268,1.77961475 C25.817268,1.25321688 25.991749,0.825014947 26.3407109,0.495008968 C26.6896728,0.165002989 27.1647999,0 27.7660921,0 C28.3842236,0 28.8636253,0.154994931 29.2042971,0.464984793 C29.5449689,0.774974655 29.7153048,1.21318464 29.7153048,1.77961475 C29.7153048,2.30627258 29.5408238,2.7345395 29.1918619,3.0644155 C28.8429,3.39429151 28.3676434,3.55922951 27.7660921,3.55922951 Z" id="path-6"></path>
        <linearGradient x1="48.4223391%" y1="-28.5614522%" x2="52.0622702%" y2="147.478097%" id="linearGradient-7">
            <stop stop-color="#8B5CF6" offset="0%"></stop>
            <stop stop-color="#FB7185" offset="49.2324082%"></stop>
            <stop stop-color="#DB2777" offset="100%"></stop>
        </linearGradient>
        <polygon id="path-8" points="33.2257262 19.5098651 33.2257262 1.04304765 36.2937154 1.04304765 36.2937154 19.5098651"></polygon>
        <linearGradient x1="17.1057754%" y1="-28.5614522%" x2="92.9983252%" y2="147.478097%" id="linearGradient-9">
            <stop stop-color="#8B5CF6" offset="0%"></stop>
            <stop stop-color="#FB7185" offset="49.2324082%"></stop>
            <stop stop-color="#DB2777" offset="100%"></stop>
        </linearGradient>
        <path d="M44.2872883,19.7594167 C43.1220094,19.7594167 42.0806288,19.5621799 41.1631465,19.1677065 C40.2456642,18.773233 39.4950852,18.2101172 38.9114095,17.4783592 L40.8952075,15.7724401 C41.39935,16.3310718 41.9558885,16.7359432 42.5648232,16.9870545 C43.1737578,17.2381658 43.8225239,17.3637214 44.5111214,17.3637214 C44.7826225,17.3637214 45.0333337,17.3313577 45.2632548,17.2666303 C45.4931759,17.2019028 45.6916852,17.1040318 45.8587828,16.9730172 C46.0258803,16.8420027 46.1532761,16.6868777 46.2409699,16.5076425 C46.3286637,16.3284073 46.3725107,16.1293509 46.3725107,15.9104734 C46.3725107,15.5150901 46.2200503,15.1995113 45.9151296,14.963737 C45.7526952,14.8574177 45.4949245,14.7378409 45.1418176,14.6050066 C44.7887106,14.4721724 44.3319772,14.3325795 43.7716174,14.1862279 C42.8742128,13.953573 42.126354,13.6859549 41.528041,13.3833736 C40.929728,13.0807923 40.4597175,12.7366191 40.1180095,12.3508539 C39.8387363,12.0246172 39.6301234,11.665042 39.4921707,11.2721282 C39.3542181,10.8792144 39.2852418,10.4445138 39.2852418,9.9680262 C39.2852418,9.39197796 39.4130261,8.86759469 39.6685947,8.39487639 C39.9241633,7.9221581 40.2760397,7.51189269 40.7242239,7.16408017 C41.1724081,6.81626764 41.6934546,6.54916946 42.2873635,6.36278562 C42.8812723,6.17640178 43.5082768,6.08320986 44.168377,6.08320986 C44.8225187,6.08320986 45.4622822,6.16554888 46.0876676,6.33022694 C46.7130529,6.49490499 47.2937494,6.73275884 47.829757,7.04378851 C48.3657646,7.35481817 48.8247,7.72310172 49.2065633,8.14863916 L47.5165462,10.0249552 C47.2082576,9.7257532 46.8675858,9.45807013 46.4945308,9.22190595 C46.1214757,8.98574177 45.7416849,8.80026775 45.3551584,8.6654839 C44.9686319,8.53070004 44.6144887,8.46330812 44.2927287,8.46330812 C43.9784816,8.46330812 43.6964235,8.49235748 43.4465544,8.55045621 C43.1966852,8.60855494 42.9874246,8.69654787 42.8187726,8.814435 C42.6501207,8.93232213 42.5219478,9.0783488 42.4342539,9.25251501 C42.3465601,9.42668122 42.3027131,9.62333307 42.3027131,9.84247056 C42.3159255,10.0418519 42.3672853,10.2296005 42.4567927,10.4057163 C42.5463,10.5818321 42.6756387,10.7313681 42.8448088,10.8543243 C43.0204555,10.9736411 43.2898194,11.1047857 43.6529004,11.2477579 C44.0159814,11.3907302 44.4928572,11.5355221 45.0835277,11.6821337 C45.8956997,11.8984117 46.5745822,12.1380202 47.1201752,12.4009592 C47.6657682,12.6638982 48.0994447,12.9669344 48.4212047,13.3100678 C48.732602,13.6157685 48.9546216,13.9681302 49.0872634,14.3671528 C49.2199052,14.7661754 49.2862261,15.2100393 49.2862261,15.6987444 C49.2862261,16.4811926 49.0647247,17.1796122 48.6217218,17.794003 C48.1787189,18.4083938 47.5804707,18.8895604 46.8269772,19.2375029 C46.0734837,19.5854454 45.2269208,19.7594167 44.2872883,19.7594167 Z" id="path-10"></path>
        <linearGradient x1="0.712543814%" y1="-28.5614522%" x2="114.427057%" y2="147.478097%" id="linearGradient-11">
            <stop stop-color="#8B5CF6" offset="0%"></stop>
            <stop stop-color="#FB7185" offset="49.2324082%"></stop>
            <stop stop-color="#DB2777" offset="100%"></stop>
        </linearGradient>
        <path d="M58.1132468,19.7594167 C56.7298343,19.7594167 55.5124183,19.4698978 54.4609989,18.8908602 C53.4095795,18.3118225 52.5887288,17.5189763 51.9984469,16.5123216 C51.408165,15.5056669 51.113024,14.3484364 51.113024,13.0406301 C51.113024,12.0159089 51.2788263,11.0793106 51.6104308,10.2308352 C51.9420353,9.38235982 52.4038204,8.64618264 52.9957863,8.02230367 C53.5877521,7.39842471 54.2940956,6.9159583 55.1148167,6.57490447 C55.9355379,6.23385063 56.8284089,6.06332372 57.7934298,6.06332372 C58.6659641,6.06332372 59.4745739,6.22722192 60.2192591,6.55501833 C60.9639444,6.88281473 61.6099903,7.33545192 62.1573968,7.91292989 C62.7048032,8.49040786 63.1252674,9.17355533 63.4187892,9.9623723 C63.712311,10.7511893 63.8490978,11.6115574 63.8291497,12.5434766 L63.8042794,13.6313655 L53.1854226,13.6313655 L52.6134048,11.5191453 L61.2259249,11.5191453 L60.8326627,11.95859 L60.8326627,11.3900803 C60.7930256,10.8886376 60.631757,10.4411344 60.3488569,10.0475708 C60.0659568,9.65400712 59.7043654,9.34427721 59.2640828,9.11838103 C58.8238001,8.89248486 58.3403181,8.77953677 57.8136369,8.77953677 C57.0027603,8.77953677 56.3192794,8.93563649 55.7631942,9.24783592 C55.207109,9.56003535 54.7859324,10.0150771 54.4996645,10.6129611 C54.2133965,11.2108451 54.0702626,11.9465024 54.0702626,12.8199329 C54.0702626,13.6707479 54.2482409,14.4101744 54.6041976,15.0382126 C54.9601543,15.6662507 55.4668874,16.1513816 56.124397,16.4936052 C56.7819065,16.8358288 57.5497782,17.0069407 58.428012,17.0069407 C59.04433,17.0069407 59.6099359,16.9081598 60.1248296,16.7105981 C60.6397233,16.5130365 61.195096,16.1601549 61.7909479,15.6519535 L63.2921059,17.7684629 C62.8501393,18.1846422 62.3414632,18.5390834 61.7660775,18.8317866 C61.1906919,19.1244898 60.5905655,19.3522707 59.9656983,19.5151291 C59.3408311,19.6779875 58.7233472,19.7594167 58.1132468,19.7594167 Z" id="path-12"></path>
        <linearGradient x1="6.43809047%" y1="-28.5614522%" x2="106.942797%" y2="147.478097%" id="linearGradient-13">
            <stop stop-color="#8B5CF6" offset="0%"></stop>
            <stop stop-color="#FB7185" offset="49.2324082%"></stop>
            <stop stop-color="#DB2777" offset="100%"></stop>
        </linearGradient>
        <path d="M66.5233067,19.5098651 L66.5233067,6.3577166 L69.5155192,6.3577166 L69.5660371,9.05287374 L68.9916877,9.35233565 C69.1608578,8.75991058 69.4850142,8.21830565 69.9641567,7.72752086 C70.4432993,7.23673607 71.0144751,6.83998804 71.6776841,6.53727677 C72.3408931,6.23456549 73.0257341,6.08320986 73.7322071,6.08320986 C74.7270206,6.08320986 75.5594645,6.28122644 76.2295387,6.67725961 C76.899613,7.07329278 77.4029782,7.67143674 77.7396345,8.47169149 C78.0762908,9.27194624 78.2446189,10.2725571 78.2446189,11.4735241 L78.2446189,19.5098651 L75.1762411,19.5098651 L75.1762411,11.6989004 C75.1762411,11.0282305 75.0852442,10.4720684 74.9032503,10.0304141 C74.7212564,9.58875978 74.4415299,9.2649276 74.0640707,9.05891757 C73.6866115,8.85290754 73.221588,8.76315995 72.6690002,8.7896748 C72.2223704,8.7896748 71.8128518,8.86025111 71.4404444,9.00140373 C71.068037,9.14255634 70.7445283,9.34096285 70.4699184,9.59662326 C70.1953084,9.85228366 69.9802188,10.1477813 69.8246497,10.4831163 C69.6690806,10.8184512 69.591296,11.1821207 69.591296,11.5741246 L69.591296,19.5098651 L68.0699308,19.5098651 C67.7699324,19.5098651 67.4910478,19.5098651 67.2332771,19.5098651 C66.9755065,19.5098651 66.7388497,19.5098651 66.5233067,19.5098651 Z" id="path-14"></path>
        <path d="M87.8396964,19.7594167 C86.4562839,19.7594167 85.238868,19.4698978 84.1874486,18.8908602 C83.1360292,18.3118225 82.3151785,17.5189763 81.7248966,16.5123216 C81.1346147,15.5056669 80.8394737,14.3484364 80.8394737,13.0406301 C80.8394737,12.0159089 81.005276,11.0793106 81.3368805,10.2308352 C81.668485,9.38235982 82.1302701,8.64618264 82.722236,8.02230367 C83.3142018,7.39842471 84.0205453,6.9159583 84.8412664,6.57490447 C85.6619875,6.23385063 86.5548586,6.06332372 87.5198795,6.06332372 C88.3924138,6.06332372 89.2010236,6.22722192 89.9457088,6.55501833 C90.6903941,6.88281473 91.33644,7.33545192 91.8838464,7.91292989 C92.4312529,8.49040786 92.8517171,9.17355533 93.1452389,9.9623723 C93.4387606,10.7511893 93.5755475,11.6115574 93.5555994,12.5434766 L93.5307291,13.6313655 L82.9118723,13.6313655 L82.3398545,11.5191453 L90.9523746,11.5191453 L90.5591124,11.95859 L90.5591124,11.3900803 C90.5194753,10.8886376 90.3582067,10.4411344 90.0753066,10.0475708 C89.7924065,9.65400712 89.4308151,9.34427721 88.9905324,9.11838103 C88.5502498,8.89248486 88.0667678,8.77953677 87.5400866,8.77953677 C86.72921,8.77953677 86.0457291,8.93563649 85.4896439,9.24783592 C84.9335587,9.56003535 84.5123821,10.0150771 84.2261142,10.6129611 C83.9398462,11.2108451 83.7967123,11.9465024 83.7967123,12.8199329 C83.7967123,13.6707479 83.9746906,14.4101744 84.3306473,15.0382126 C84.686604,15.6662507 85.1933371,16.1513816 85.8508467,16.4936052 C86.5083562,16.8358288 87.2762279,17.0069407 88.1544617,17.0069407 C88.7707797,17.0069407 89.3363856,16.9081598 89.8512793,16.7105981 C90.366173,16.5130365 90.9215457,16.1601549 91.5173976,15.6519535 L93.0185556,17.7684629 C92.576589,18.1846422 92.0679128,18.5390834 91.4925272,18.8317866 C90.9171416,19.1244898 90.3170152,19.3522707 89.692148,19.5151291 C89.0672808,19.6779875 88.4497969,19.7594167 87.8396964,19.7594167 Z" id="path-15"></path>
        <path d="M100.64248,19.7594167 C99.4772008,19.7594167 98.4358202,19.5621799 97.5183379,19.1677065 C96.6008556,18.773233 95.8502766,18.2101172 95.2666009,17.4783592 L97.2503989,15.7724401 C97.7545414,16.3310718 98.3110799,16.7359432 98.9200146,16.9870545 C99.5289492,17.2381658 100.177715,17.3637214 100.866313,17.3637214 C101.137814,17.3637214 101.388525,17.3313577 101.618446,17.2666303 C101.848367,17.2019028 102.046877,17.1040318 102.213974,16.9730172 C102.381072,16.8420027 102.508467,16.6868777 102.596161,16.5076425 C102.683855,16.3284073 102.727702,16.1293509 102.727702,15.9104734 C102.727702,15.5150901 102.575242,15.1995113 102.270321,14.963737 C102.107887,14.8574177 101.850116,14.7378409 101.497009,14.6050066 C101.143902,14.4721724 100.687169,14.3325795 100.126809,14.1862279 C99.2294042,13.953573 98.4815454,13.6859549 97.8832324,13.3833736 C97.2849194,13.0807923 96.8149089,12.7366191 96.4732009,12.3508539 C96.1939277,12.0246172 95.9853148,11.665042 95.8473621,11.2721282 C95.7094095,10.8792144 95.6404332,10.4445138 95.6404332,9.9680262 C95.6404332,9.39197796 95.7682175,8.86759469 96.0237861,8.39487639 C96.2793547,7.9221581 96.6312311,7.51189269 97.0794153,7.16408017 C97.5275995,6.81626764 98.048646,6.54916946 98.6425549,6.36278562 C99.2364637,6.17640178 99.8634682,6.08320986 100.523568,6.08320986 C101.17771,6.08320986 101.817474,6.16554888 102.442859,6.33022694 C103.068244,6.49490499 103.648941,6.73275884 104.184948,7.04378851 C104.720956,7.35481817 105.179891,7.72310172 105.561755,8.14863916 L103.871738,10.0249552 C103.563449,9.7257532 103.222777,9.45807013 102.849722,9.22190595 C102.476667,8.98574177 102.096876,8.80026775 101.71035,8.6654839 C101.323823,8.53070004 100.96968,8.46330812 100.64792,8.46330812 C100.333673,8.46330812 100.051615,8.49235748 99.8017458,8.55045621 C99.5518766,8.60855494 99.342616,8.69654787 99.173964,8.814435 C99.0053121,8.93232213 98.8771392,9.0783488 98.7894453,9.25251501 C98.7017515,9.42668122 98.6579045,9.62333307 98.6579045,9.84247056 C98.6711169,10.0418519 98.7224767,10.2296005 98.8119841,10.4057163 C98.9014914,10.5818321 99.0308301,10.7313681 99.2000002,10.8543243 C99.3756469,10.9736411 99.6450108,11.1047857 100.008092,11.2477579 C100.371173,11.3907302 100.848049,11.5355221 101.438719,11.6821337 C102.250891,11.8984117 102.929774,12.1380202 103.475367,12.4009592 C104.02096,12.6638982 104.454636,12.9669344 104.776396,13.3100678 C105.087793,13.6157685 105.309813,13.9681302 105.442455,14.3671528 C105.575097,14.7661754 105.641418,15.2100393 105.641418,15.6987444 C105.641418,16.4811926 105.419916,17.1796122 104.976913,17.794003 C104.53391,18.4083938 103.935662,18.8895604 103.182169,19.2375029 C102.428675,19.5854454 101.582112,19.7594167 100.64248,19.7594167 Z" id="path-16"></path>
        <linearGradient x1="22.0015828%" y1="-28.5614522%" x2="86.5986754%" y2="147.478097%" id="linearGradient-17">
            <stop stop-color="#8B5CF6" offset="0%"></stop>
            <stop stop-color="#FB7185" offset="49.2324082%"></stop>
            <stop stop-color="#DB2777" offset="100%"></stop>
        </linearGradient>
        <path d="M108.304481,25 L108.304481,6.3577166 L111.316512,6.3577166 L111.372081,9.34219761 L110.847473,9.11760119 C110.950322,8.60134134 111.232186,8.11530063 111.693064,7.65947906 C112.153942,7.20365749 112.721815,6.83361928 113.396682,6.54936442 C114.071549,6.26510957 114.77569,6.12298214 115.509106,6.12298214 C116.669204,6.12298214 117.699315,6.4149705 118.59944,6.9989472 C119.499565,7.58292391 120.210701,8.38486834 120.732849,9.40478047 C121.254996,10.4246926 121.51607,11.5968702 121.51607,12.9213133 C121.51607,14.2291196 121.257457,15.3962931 120.740232,16.422834 C120.223007,17.4493748 119.512648,18.257948 118.609155,18.8485534 C117.705662,19.4391588 116.683582,19.7344615 115.542914,19.7344615 C114.783592,19.7344615 114.053414,19.5847955 113.352382,19.2854636 C112.651349,18.9861317 112.057181,18.5960774 111.569878,18.1153006 C111.082575,17.6345239 110.777525,17.1261275 110.654727,16.5901115 L111.39734,16.2407393 L111.39734,25 L108.304481,25 Z M114.92271,17.0081104 C115.627888,17.0081104 116.251913,16.8336843 116.794786,16.4848319 C117.337659,16.1359796 117.765507,15.6542281 118.078329,15.0395773 C118.391151,14.4249266 118.547562,13.7188385 118.547562,12.9213133 C118.547562,12.123528 118.394454,11.4197796 118.088238,10.8100678 C117.782022,10.2003561 117.357478,9.7211391 116.814605,9.37241675 C116.271732,9.0236944 115.6411,8.84933323 114.92271,8.84933323 C114.20432,8.84933323 113.572847,9.02038005 113.02829,9.36247368 C112.483733,9.70456731 112.055044,10.1837843 111.742222,10.8001248 C111.4294,11.4164652 111.272988,12.123528 111.272988,12.9213133 C111.272988,13.7188385 111.4294,14.4249266 111.742222,15.0395773 C112.055044,15.6542281 112.483733,16.1359796 113.02829,16.4848319 C113.572847,16.8336843 114.20432,17.0081104 114.92271,17.0081104 Z" id="path-18"></path>
        <path d="M129.209043,19.7543477 C128.124334,19.7543477 127.141049,19.4557306 126.259188,18.8584965 C125.377327,18.2612623 124.674481,17.4460605 124.15065,16.4128909 C123.626818,15.3797213 123.364903,14.2092334 123.364903,12.9014271 C123.364903,11.5769841 123.62928,10.4014921 124.158033,9.37495126 C124.686787,8.34841041 125.406149,7.54315163 126.316118,6.95917492 C127.226087,6.37519821 128.25309,6.08320986 129.397125,6.08320986 C130.060075,6.08320986 130.666678,6.17965115 131.216934,6.37253373 C131.767191,6.56541631 132.249507,6.83472406 132.663883,7.18045699 C133.078259,7.52618992 133.423076,7.92436767 133.698333,8.37499025 C133.973591,8.82561283 134.157852,9.30866412 134.251116,9.82414412 L133.587777,9.65998596 L133.587777,6.3577166 L136.655766,6.3577166 L136.655766,19.5098651 L133.562518,19.5098651 L133.562518,16.3600561 L134.265882,16.2411292 C134.15293,16.6970808 133.94477,17.1363306 133.641404,17.5588786 C133.338037,17.9814266 132.957664,18.355689 132.500283,18.6816658 C132.042902,19.0076425 131.53578,19.267917 130.978918,19.4624893 C130.422055,19.6570615 129.832097,19.7543477 129.209043,19.7543477 Z M130.037536,17.0279966 C130.755926,17.0279966 131.3874,16.8535704 131.931957,16.5047181 C132.476513,16.1558658 132.901835,15.6707999 133.207922,15.0495204 C133.514008,14.4282409 133.667051,13.7122098 133.667051,12.9014271 C133.667051,12.1036419 133.514008,11.3965791 133.207922,10.7802386 C132.901835,10.1638982 132.476513,9.68136681 131.931957,9.33264447 C131.3874,8.98392212 130.755926,8.80956095 130.037536,8.80956095 C129.3321,8.80956095 128.711248,8.98392212 128.174981,9.33264447 C127.638715,9.68136681 127.217538,10.1638982 126.911452,10.7802386 C126.605365,11.3965791 126.452322,12.1036419 126.452322,12.9014271 C126.452322,13.7122098 126.605365,14.4282409 126.911452,15.0495204 C127.217538,15.6707999 127.638715,16.1558658 128.174981,16.5047181 C128.711248,16.8535704 129.3321,17.0279966 130.037536,17.0279966 Z" id="path-19"></path>
        <linearGradient x1="27.7881541%" y1="-28.5614522%" x2="79.0346463%" y2="147.478097%" id="linearGradient-20">
            <stop stop-color="#8B5CF6" offset="0%"></stop>
            <stop stop-color="#FB7185" offset="49.2324082%"></stop>
            <stop stop-color="#DB2777" offset="100%"></stop>
        </linearGradient>
        <path d="M140.226843,19.5098651 L140.226843,6.35849645 L143.211283,6.35849645 L143.261024,9.05365359 L142.689006,9.3531155 C142.854808,8.75419169 143.178123,8.20933739 143.658949,7.7185526 C144.139776,7.22776781 144.711793,6.83264447 145.375002,6.53318256 C146.038211,6.23372066 146.718001,6.08398971 147.41437,6.08398971 C148.409183,6.08398971 149.24234,6.28363098 149.913839,6.68291351 C150.585338,7.08219605 151.091035,7.68111986 151.430929,8.47968494 C151.770824,9.27825002 151.940771,10.2764564 151.940771,11.474304 L151.940771,19.5098651 L148.88172,19.5098651 L148.88172,11.6989004 C148.88172,11.0334295 148.790529,10.4802568 148.608146,10.0393824 C148.425764,9.59850789 148.1439,9.27409083 147.762555,9.06613117 C147.38121,8.85817151 146.916963,8.76251007 146.369816,8.77914685 C145.92215,8.77914685 145.511789,8.84985313 145.138734,8.99126569 C144.765679,9.13267826 144.442365,9.33231953 144.168791,9.5901895 C143.895217,9.84805948 143.679674,10.1433622 143.522162,10.4760976 C143.36465,10.8088331 143.285894,11.1748421 143.285894,11.5741246 L143.285894,19.5098651 L141.768803,19.5098651 C141.470359,19.5098651 141.192641,19.5098651 140.935647,19.5098651 C140.678654,19.5098651 140.442385,19.5098651 140.226843,19.5098651 Z M148.18535,4.16244249 C147.870326,4.16244249 147.588462,4.10421378 147.339759,3.98775638 C147.091056,3.87129897 146.817482,3.69661286 146.519038,3.46369804 C146.220594,3.19750968 145.988471,3.01450519 145.822668,2.91468455 C145.656866,2.81486392 145.507644,2.7649536 145.375002,2.7649536 C145.159459,2.7649536 144.964642,2.87725181 144.790549,3.10184824 C144.616457,3.32644467 144.49625,3.6716577 144.42993,4.13748733 L142.564654,3.86298058 C142.581234,2.99786841 142.838228,2.25753204 143.335635,1.64197146 C143.833041,1.02641088 144.504541,0.718630586 145.350132,0.718630586 C145.665156,0.718630586 145.942875,0.776859289 146.183288,0.893316697 C146.423702,1.0097741 146.69313,1.17614183 146.991574,1.39241987 C147.290018,1.62533469 147.517996,1.8000208 147.675509,1.9164782 C147.833021,2.03293561 147.986388,2.09116431 148.13561,2.09116431 C148.367733,2.09116431 148.566696,1.9788661 148.732498,1.75426967 C148.8983,1.52967324 149.006072,1.1927786 149.055812,0.743585744 L150.945958,1.01809249 C150.929378,1.56710598 150.805026,2.08700512 150.572903,2.57778991 C150.34078,3.0685747 150.02161,3.45537966 149.615395,3.73820479 C149.209179,4.02102992 148.732498,4.16244249 148.18535,4.16244249 Z" id="path-21"></path>
        <linearGradient x1="-6.81390873%" y1="-28.5614522%" x2="124.265405%" y2="147.478097%" id="linearGradient-22">
            <stop stop-color="#8B5CF6" offset="0%"></stop>
            <stop stop-color="#FB7185" offset="49.2324082%"></stop>
            <stop stop-color="#DB2777" offset="100%"></stop>
        </linearGradient>
        <path d="M161.365254,19.7594167 C160.054639,19.7594167 158.88515,19.4632691 157.856788,18.870974 C156.828425,18.2786789 156.017354,17.469261 155.423575,16.4427201 C154.829796,15.4161793 154.532906,14.242377 154.532906,12.9213133 C154.532906,11.6002496 154.829796,10.4264473 155.423575,9.39990642 C156.017354,8.37336557 156.828425,7.56394759 157.856788,6.9716525 C158.88515,6.3793574 160.054639,6.08320986 161.365254,6.08320986 C162.662397,6.08320986 163.824373,6.3793574 164.851181,6.9716525 C165.87799,7.56394759 166.687441,8.37336557 167.279537,9.39990642 C167.871632,10.4264473 168.16768,11.6002496 168.16768,12.9213133 C168.16768,14.242377 167.871632,15.4161793 167.279537,16.4427201 C166.687441,17.469261 165.87799,18.2786789 164.851181,18.870974 C163.824373,19.4632691 162.662397,19.7594167 161.365254,19.7594167 Z M161.365254,17.0272167 C162.076908,17.0272167 162.713304,16.8478515 163.274441,16.4891211 C163.835578,16.1303907 164.275019,15.6412306 164.592763,15.0216408 C164.910508,14.402051 165.062774,13.7019418 165.049561,12.9213133 C165.062774,12.1240479 164.910508,11.4156204 164.592763,10.7960306 C164.275019,10.1764408 163.835578,9.69053004 163.274441,9.33829837 C162.713304,8.9860667 162.076908,8.80995087 161.365254,8.80995087 C160.649973,8.80995087 160.008525,8.98938106 159.440912,9.34824144 C158.873298,9.70710182 158.429712,10.1962619 158.110154,10.8157217 C157.790596,11.4351816 157.637424,12.1370454 157.650636,12.9213133 C157.637424,13.7019418 157.790596,14.402051 158.110154,15.0216408 C158.429712,15.6412306 158.873298,16.1303907 159.440912,16.4891211 C160.008525,16.8478515 160.649973,17.0272167 161.365254,17.0272167 Z" id="path-23"></path>
        <polygon id="path-24" points="170.932011 19.5098651 170.932011 1.04304765 174 1.04304765 174 19.5098651"></polygon>
        <linearGradient x1="-5.28362516%" y1="46.2706549%" x2="108.857375%" y2="53.5634183%" id="linearGradient-25">
            <stop stop-color="#8B5CF6" offset="0%"></stop>
            <stop stop-color="#FB7185" offset="45.4217657%"></stop>
            <stop stop-color="#DB2777" offset="100%"></stop>
        </linearGradient>
    </defs>
    <g id="RailsEspanol" stroke="none" stroke-width="1" fill="none" fill-rule="evenodd">
        <rect fill="#FFFFFF" x="0" y="0" width="193" height="37"></rect>
        <g id="Paths-complete" transform="translate(-0, -2)">
            <g id="Rails" opacity="0.630952381" fill="#F4D9E9">
                <path d="M62.2364536,17.1248113 C56.8318,12.9790442 43.2004643,5.16782079 32.2444261,13.8207011 C21.288388,22.4735814 24.4544818,37.9586519 24.4544818,39 C21.3597211,39 7.89543911,39 2.73913043,39 C6.94046928,20.7578961 14.7158852,12.644606 23.3822492,7.36159139 C42.3133728,-4.17881946 63.2031091,16.3642853 62.998509,16.55644 C62.7939089,16.7485948 62.7939089,16.7485948 62.2364536,17.1248113 Z" id="Path"></path>
                <polygon id="Path-2" points="1.48388005 24.1690141 4.93043478 25.8502739 3.58137642 30.2112676 -3.26645038e-16 28.9297701"></polygon>
                <polygon id="Path-3" points="10.0300786 10.4366197 13.6956522 12.8052402 10.8693738 16.4788732 7.12173913 13.7381602"></polygon>
                <polygon id="Path-4" points="18.626087 3.54649068 22.1462917 1.64788732 24.6521739 4.60673893 21.1859543 6.5915493"></polygon>
                <polygon id="Path-5" points="31.773913 0 36.3961635 0 36.7043478 2.1971831 32.5331213 2.1971831"></polygon>
                <polygon id="Path-6" points="44.9217391 2.1971831 48.7565217 4.87898639 48.0132489 6.04225352 44.9217391 4.2780614"></polygon>
                <polygon id="Path-7" points="44.9217391 10.9859155 44.9217391 11.9515193 48.4853415 12.084507 48.7565217 11.1969411"></polygon>
                <polygon id="Path-8" points="35.6086957 12.7633502 38.6370443 11.5352113 39.4434783 13.3634905 37.0881488 15.3802817"></polygon>
                <polygon id="Path-9" points="29.0347826 17.9178083 31.2324746 15.9295775 33.4173913 18.8838447 32.1759789 20.8732394"></polygon>
                <polygon id="Path-10" points="25.9495874 24.1690141 29.0347826 26.0958781 28.6398925 29.1126761 24.6521739 27.3618281"></polygon>
                <polygon id="Path-11" points="24.6521739 34.6056338 24.6521739 38.2063175 28.4869565 39 28.4869565 36.1918301"></polygon>
            </g>
            <g id="railsenespanol" transform="translate(13, 13)">
                <g id="railsenespañol-mask" fill-rule="nonzero">
                    <g id="Path">
                        <use fill="#8B5CF6" xlink:href="#path-2"></use>
                        <use fill="url(#linearGradient-1)" xlink:href="#path-2"></use>
                    </g>
                    <g id="Shape">
                        <use fill="#8B5CF6" xlink:href="#path-4"></use>
                        <use fill="url(#linearGradient-3)" xlink:href="#path-4"></use>
                    </g>
                    <g id="Shape">
                        <use fill="#8B5CF6" xlink:href="#path-6"></use>
                        <use fill="url(#linearGradient-5)" xlink:href="#path-6"></use>
                    </g>
                    <g id="Path">
                        <use fill="#8B5CF6" xlink:href="#path-8"></use>
                        <use fill="url(#linearGradient-7)" xlink:href="#path-8"></use>
                    </g>
                    <g id="Path">
                        <use fill="#8B5CF6" xlink:href="#path-10"></use>
                        <use fill="url(#linearGradient-9)" xlink:href="#path-10"></use>
                    </g>
                    <g id="Path">
                        <use fill="#8B5CF6" xlink:href="#path-12"></use>
                        <use fill="url(#linearGradient-11)" xlink:href="#path-12"></use>
                    </g>
                    <g id="Path">
                        <use fill="#8B5CF6" xlink:href="#path-14"></use>
                        <use fill="url(#linearGradient-13)" xlink:href="#path-14"></use>
                    </g>
                    <g id="Path">
                        <use fill="#8B5CF6" xlink:href="#path-15"></use>
                        <use fill="url(#linearGradient-11)" xlink:href="#path-15"></use>
                    </g>
                    <g id="Path">
                        <use fill="#8B5CF6" xlink:href="#path-16"></use>
                        <use fill="url(#linearGradient-9)" xlink:href="#path-16"></use>
                    </g>
                    <g id="Shape">
                        <use fill="#8B5CF6" xlink:href="#path-18"></use>
                        <use fill="url(#linearGradient-17)" xlink:href="#path-18"></use>
                    </g>
                    <g id="Shape">
                        <use fill="#8B5CF6" xlink:href="#path-19"></use>
                        <use fill="url(#linearGradient-3)" xlink:href="#path-19"></use>
                    </g>
                    <g id="Shape">
                        <use fill="#8B5CF6" xlink:href="#path-21"></use>
                        <use fill="url(#linearGradient-20)" xlink:href="#path-21"></use>
                    </g>
                    <g id="Shape">
                        <use fill="#8B5CF6" xlink:href="#path-23"></use>
                        <use fill="url(#linearGradient-22)" xlink:href="#path-23"></use>
                    </g>
                    <g id="Path">
                        <use fill="#8B5CF6" xlink:href="#path-24"></use>
                        <use fill="url(#linearGradient-7)" xlink:href="#path-24"></use>
                    </g>
                </g>
                <rect id="Rectangle" fill="url(#linearGradient-25)" x="-3.50766746" y="-3.01909763" width="181.000788" height="31.1939484"></rect>
            </g>
        </g>
    </g>
</svg>