<?xml version="1.0" standalone="no"?>
<!DOCTYPE svg PUBLIC "-//W3C//DTD SVG 20010904//EN"
 "http://www.w3.org/TR/2001/REC-SVG-20010904/DTD/svg10.dtd">
<svg version="1.0" xmlns="http://www.w3.org/2000/svg"
 width="600.000000pt" height="600.000000pt" viewBox="0 0 600.000000 600.000000"
 preserveAspectRatio="xMidYMid meet">
<metadata>
Created by potrace 1.11, written by Peter Selinger 2001-2013
</metadata>
<g transform="translate(0.000000,600.000000) scale(0.100000,-0.100000)"
fill="#000000" stroke="none">
<path d="M3459 5596 c-2 -2 -33 -7 -69 -11 -105 -11 -185 -22 -185 -25 0 -1
-11 -3 -25 -5 -14 -1 -36 -5 -50 -8 -14 -4 -38 -9 -55 -12 -16 -4 -34 -8 -40
-9 -5 -1 -19 -5 -30 -9 -11 -3 -31 -8 -45 -11 -14 -3 -41 -10 -60 -16 -19 -6
-46 -13 -60 -16 -14 -2 -32 -7 -40 -11 -18 -8 -14 -6 -70 -22 -25 -7 -51 -18
-57 -23 -7 -6 -13 -8 -13 -4 0 4 -13 0 -30 -9 -16 -8 -32 -15 -35 -15 -12 0
-48 -12 -90 -31 -35 -15 -80 -31 -81 -27 0 2 -8 -3 -17 -11 -10 -7 -17 -10
-17 -5 0 5 -4 3 -9 -4 -4 -7 -15 -14 -23 -16 -8 -1 -46 -17 -84 -35 -38 -18
-103 -49 -144 -68 -41 -20 -83 -43 -92 -51 -10 -8 -18 -11 -18 -7 0 4 -8 1
-17 -7 -18 -15 -40 -25 -57 -26 -5 0 -12 -4 -15 -10 -3 -5 -26 -20 -51 -34
-87 -49 -125 -72 -128 -80 -2 -4 -8 -8 -13 -8 -5 0 -32 -16 -59 -35 -27 -19
-53 -35 -56 -35 -3 0 -23 -13 -44 -30 -21 -16 -42 -30 -47 -30 -5 0 -16 -8
-24 -17 -21 -23 -59 -54 -59 -48 0 5 -29 -18 -55 -42 -8 -7 -19 -13 -25 -13
-6 0 -8 -4 -5 -10 3 -5 1 -10 -4 -10 -12 0 -128 -96 -174 -142 -15 -15 -29
-28 -31 -28 -13 0 -200 -203 -264 -285 -25 -33 -52 -66 -59 -73 -7 -7 -13 -20
-13 -28 0 -8 -4 -12 -10 -9 -5 3 -10 -1 -10 -9 0 -9 -5 -16 -11 -16 -5 0 -8
-4 -4 -9 3 -6 0 -13 -8 -18 -7 -4 -28 -28 -47 -53 -19 -25 -39 -48 -45 -52 -5
-4 -7 -8 -3 -8 4 0 -6 -14 -22 -30 -17 -17 -30 -34 -30 -38 0 -4 -11 -20 -25
-36 -14 -16 -25 -32 -25 -36 0 -6 -8 -16 -48 -65 -5 -6 -11 -15 -13 -20 -2 -6
-21 -40 -42 -77 -39 -68 -137 -301 -137 -325 0 -7 -5 -13 -11 -13 -5 0 -8 -4
-5 -8 3 -5 -2 -22 -10 -38 -9 -16 -15 -29 -14 -29 1 0 -1 -7 -4 -15 -3 -8 -17
-46 -32 -85 -14 -38 -27 -74 -28 -80 -2 -5 -8 -23 -14 -38 -7 -16 -12 -34 -12
-42 0 -8 -4 -16 -9 -19 -5 -4 -12 -24 -16 -46 -4 -22 -11 -40 -16 -40 -5 0 -8
-3 -7 -7 3 -11 -12 -73 -25 -103 -5 -14 -12 -33 -13 -43 -2 -9 -12 -42 -23
-71 -10 -30 -17 -57 -14 -59 2 -3 0 -14 -5 -24 -6 -10 -12 -31 -15 -48 -5 -26
-10 -51 -22 -105 -2 -8 -4 -17 -6 -20 -2 -6 -3 -8 -13 -80 -4 -30 -10 -64 -13
-75 -17 -78 -10 -309 13 -375 3 -8 5 -17 5 -20 1 -3 5 -11 11 -18 6 -6 7 -12
3 -12 -4 0 -2 -7 5 -15 7 -8 9 -15 4 -15 -5 0 -4 -4 1 -8 6 -4 16 -17 23 -29
41 -76 35 -67 107 -156 30 -38 55 -66 55 -63 0 3 15 -9 32 -27 37 -38 160
-127 176 -127 6 0 12 -3 14 -8 4 -10 87 -52 104 -52 8 0 14 -5 14 -12 0 -6 3
-8 6 -5 4 3 16 1 28 -5 11 -7 30 -13 40 -15 11 -2 24 -7 30 -12 10 -8 34 -14
101 -27 17 -3 36 -11 43 -16 6 -6 12 -8 12 -6 0 4 69 -9 195 -37 51 -12 75
-17 80 -16 2 0 19 -5 37 -10 18 -6 44 -12 57 -15 13 -3 51 -12 85 -20 90 -22
98 -24 131 -29 17 -3 39 -9 50 -12 11 -4 28 -8 38 -9 9 -1 18 -3 20 -4 1 -1
11 -4 22 -6 11 -1 31 -6 45 -9 14 -4 41 -11 60 -15 19 -5 55 -14 79 -20 24 -6
50 -9 58 -6 7 3 13 2 13 -3 0 -5 12 -11 28 -14 52 -10 87 -17 112 -24 48 -12
55 -14 76 -17 11 -2 26 -6 32 -10 7 -4 26 -9 44 -11 32 -4 73 -13 151 -33 20
-6 37 -8 37 -5 0 3 7 0 15 -7 8 -7 15 -10 15 -7 0 4 30 -2 90 -18 25 -6 153
-35 185 -41 52 -10 60 -12 60 -15 0 -1 9 -3 20 -5 26 -4 60 -12 60 -14 0 -2
43 -10 70 -13 11 -1 22 -5 25 -8 3 -4 23 -10 45 -13 22 -4 50 -8 62 -10 11 -2
30 -7 41 -10 35 -11 66 -18 90 -19 12 -1 22 -4 22 -8 0 -4 8 -8 18 -7 9 0 28
-3 42 -7 37 -10 102 -25 125 -29 11 -2 21 -5 23 -6 3 -3 10 -5 57 -14 22 -5
96 -22 165 -38 69 -16 136 -32 150 -34 14 -3 33 -7 42 -10 9 -3 27 -7 40 -10
67 -15 73 -16 141 -33 20 -5 37 -7 37 -4 0 3 6 0 14 -6 8 -6 18 -11 22 -9 5 1
32 -4 60 -11 29 -7 60 -14 70 -16 11 -2 19 -4 19 -5 0 -2 33 -9 65 -15 14 -2
25 -4 25 -5 0 -3 39 -10 60 -12 11 -1 25 -5 30 -9 6 -4 28 -10 50 -14 46 -8
70 -13 70 -15 0 -1 9 -3 20 -5 11 -2 32 -7 47 -11 24 -5 29 -2 38 22 6 16 14
38 19 49 21 47 62 161 61 169 -1 5 2 12 7 15 8 5 50 106 56 136 2 6 10 25 20
44 9 18 14 37 12 41 -3 5 -1 10 5 12 5 1 11 12 13 23 4 22 20 62 43 110 8 17
16 41 19 54 2 13 11 33 18 45 8 11 13 29 11 39 -1 9 1 17 6 17 4 0 15 21 24
48 10 26 20 54 23 62 4 8 7 17 8 20 8 25 27 68 35 82 6 10 10 23 10 28 0 6 8
30 19 53 22 51 33 79 37 92 1 6 8 24 15 40 7 17 11 36 10 42 -1 7 2 13 7 13 6
0 13 12 18 28 11 38 9 33 49 127 9 22 18 45 19 50 4 15 15 44 41 107 13 31 21
59 18 62 -4 3 0 6 7 6 7 0 11 3 7 6 -3 4 2 23 12 43 10 20 26 61 36 91 10 30
22 58 27 61 5 3 9 8 7 10 -1 2 9 33 22 69 13 36 23 68 21 73 -1 4 3 7 8 7 6 0
10 9 10 20 0 11 4 20 8 20 5 0 9 6 9 13 0 7 17 57 39 112 21 55 39 102 39 105
0 3 6 15 13 26 6 12 8 24 5 28 -3 3 0 6 7 6 7 0 11 3 8 6 -4 3 0 17 7 31 8 15
12 30 9 35 -3 4 0 8 5 8 6 0 11 7 11 15 0 8 11 39 24 69 13 30 22 57 18 60 -3
3 0 6 7 6 7 0 10 4 6 9 -3 5 -1 12 4 15 5 3 12 17 15 30 3 14 11 38 18 53 6
15 12 30 13 33 1 3 7 19 14 35 6 17 19 50 28 75 9 25 20 50 25 56 4 6 5 14 1
17 -3 4 -1 7 6 7 7 0 10 4 7 8 -2 4 1 21 9 37 18 41 105 262 105 268 0 3 10
27 22 54 12 26 22 50 22 53 1 3 5 11 9 18 5 6 6 12 2 12 -3 0 2 15 12 33 9 17
16 35 15 40 -1 4 3 7 9 7 6 0 9 7 5 15 -3 8 -2 15 2 15 14 0 94 218 107 291 3
18 8 35 10 38 18 30 27 371 12 431 -4 14 -10 41 -13 60 -11 61 -63 190 -76
190 -5 0 -8 7 -8 15 0 8 -4 15 -10 15 -5 0 -10 5 -10 11 0 15 -142 159 -157
159 -7 0 -13 4 -13 8 0 10 -178 122 -232 146 -21 9 -53 23 -70 31 -69 30 -166
63 -172 58 -3 -4 -6 -1 -6 5 0 7 -7 12 -15 12 -8 0 -34 6 -57 14 -143 46 -172
54 -221 63 -15 3 -30 9 -33 14 -3 5 -15 9 -27 9 -12 0 -46 9 -75 19 -28 11
-52 18 -52 16 0 -2 -26 5 -57 16 -32 11 -59 20 -60 20 -2 0 -8 1 -15 4 -7 2
-49 14 -93 26 -44 13 -83 28 -87 33 -4 6 -8 8 -8 5 0 -4 -28 2 -62 13 -93 29
-335 45 -350 23 -5 -6 -8 -6 -8 2 0 8 -9 9 -27 4 -16 -4 -62 -6 -103 -4 -153
7 -408 12 -411 9z"/>
</g>
</svg>
